<?xml version="1.0" encoding="utf-8"?>
<svg width="21px" height="20px" viewBox="0 0 21 20" version="1.1" xmlns:xlink="http://www.w3.org/1999/xlink" xmlns="http://www.w3.org/2000/svg">
    <path d="M8.98136 12.6305C9.0911 12.5148 9.24368 12.4493 9.40321 12.4495C9.56274 12.4498 9.71513 12.5157 9.82452 12.6318C10.0589 12.8754 10.0577 13.266 9.82577 13.5071L5.54744 17.8903C5.43833 18.0054 5.28685 18.0707 5.12827 18.0712C4.96969 18.0717 4.81783 18.0072 4.70803 17.8928C4.65067 17.8626 4.59854 17.8234 4.55364 17.7766L0.175933 13.5071C-0.0581603 13.2615 -0.0587098 12.8756 0.174683 12.6293C0.284567 12.5131 0.437527 12.4473 0.597473 12.4476C0.757419 12.4478 0.910183 12.514 1.01972 12.6305L4.60144 16.1075L4.6 0.500154C4.6 0.500154 4.5712 -0.00601518 5.1 0.000264314C5.62648 -0.0133057 5.6 0.500154 5.6 0.500154L5.59784 16.092L8.98136 12.6305L8.98136 12.6305Z" transform="matrix(-1 8.742278E-08 -8.742278E-08 -1 15 18.0712)" fill-rule="evenodd" />
</svg>