<?xml version="1.0" encoding="utf-8"?>
<svg width="256px" height="47px" viewBox="0 0 256 47" version="1.1" xmlns:xlink="http://www.w3.org/1999/xlink" xmlns="http://www.w3.org/2000/svg">
  <desc>Created with Lunacy</desc>
  <defs>
    <radialGradient gradientUnits="objectBoundingBox" cx="50.012875%" cy="49.927624%" fx="50.012875%" fy="49.927624%" r="64.24603%" gradientTransform="translate(0.50012875,0.49927622),scale(0.6592324,1),translate(-0.50012875,-0.49927622)" id="gradient_1">
      <stop offset="0%" stop-color="#E2E3E4" />
      <stop offset="100%" stop-color="#BCBEC0" />
    </radialGradient>
    <path d="M0 0L255.3 0L255.3 45.8L0 45.8L0 0Z" id="path_1" />
    <path d="M25.3044 1.59974C8.80443 5.99901 -2.29557 17.8971 0.404433 28.1954C3.10443 38.4937 18.6044 43.3929 35.0044 39.0936C51.4044 34.7943 62.6044 22.7963 60.0044 12.4979C58.0044 4.69923 48.7044 0 37.2044 0C33.2044 0.0999832 29.2044 0.599901 25.3044 1.59974L25.3044 1.59974Z" id="path_2" />
    <clipPath id="mask_1">
      <use xlink:href="#path_1" />
    </clipPath>
    <clipPath id="mask_2">
      <use xlink:href="#path_2" />
    </clipPath>
  </defs>
  <g id="logo_lat" transform="translate(0.25 0.25)">
    <path d="M0 0L255.3 0L255.3 45.8L0 45.8L0 0Z" id="Background" fill="none" fill-rule="evenodd" stroke="none" />
    <g clip-path="url(#mask_1)">
      <g id="Group_52" transform="translate(1.5079346 0)">
        <g id="Group" transform="translate(102.07959 0)">
          <path d="M94.6 14.0977C93.7 14.0977 92.7 13.9977 91.8 13.6977C91 13.4978 90.3 13.0978 89.7 12.4979C89.5 12.298 89.4 12.098 89.4 11.7981C89.4 11.5981 89.5 11.4981 89.6 11.2981C89.7 11.1982 89.8 11.0982 90 11.0982C90.2 11.0982 90.4 11.1982 90.5 11.2981C91.7 12.198 93.1 12.6979 94.6 12.6979C95.5 12.7979 96.4 12.498 97.1 12.098C97.7 11.6981 98 10.9982 98 10.2983C98 9.89837 97.9 9.49844 97.6 9.19849C97.3 8.89854 96.9 8.69857 96.5 8.4986C95.9 8.29864 95.3 8.09867 94.6 7.99869C93.7 7.79872 92.9 7.49877 92 7.19882C91.4 6.99885 90.8 6.59892 90.4 5.99901C90 5.39911 89.7 4.69923 89.8 3.99934C89.8 3.29946 90 2.49959 90.4 1.89969C90.8 1.29979 91.5 0.799872 92.2 0.499918C93 0.199968 93.9 0 94.8 0C95.7 0 96.5 0.0999821 97.3 0.399936C98 0.599904 98.7 1.09982 99.3 1.59974C99.5 1.79971 99.6 1.99968 99.6 2.29963C99.6 2.49959 99.5 2.59958 99.4 2.79954C99.3 2.89953 99.2 2.99951 99 2.99951C98.8 2.99951 98.6 2.89953 98.4 2.79954C97.9 2.29963 97.3 1.99968 96.6 1.69973C96 1.49976 95.3 1.39978 94.7 1.39978C93.8 1.29979 92.9 1.59974 92.2 2.09966C91.6 2.4996 91.3 3.19948 91.3 3.99935C91.3 4.59925 91.6 5.19915 92.1 5.4991C92.8 5.89904 93.7 6.19899 94.5 6.39896C95.7 6.69891 96.6 6.89888 97.3 7.19883C97.9 7.39879 98.5 7.79873 99 8.29864C99.5 8.79856 99.7 9.49844 99.7 10.1983C99.7 10.8982 99.5 11.5981 99.1 12.198C98.6 12.7979 98 13.2978 97.3 13.4978C96.4 13.9977 95.5 14.1977 94.6 14.0977ZM137 13.3978C137 13.1978 136.9 12.9979 136.7 12.7979L132.5 9.19848L136.3 5.79904C136.5 5.59907 136.6 5.39911 136.6 5.19914C136.6 4.7992 136.3 4.49925 135.9 4.49925C135.7 4.49925 135.5 4.59924 135.4 4.69922L130.8 8.89853L130.8 1.09981C130.8 0.89985 130.8 0.599896 130.6 0.499914C130.5 0.399928 130.3 0.299946 130.1 0.299946C129.9 0.299946 129.7 0.399932 129.5 0.499914C129.4 0.699878 129.3 0.899846 129.3 1.09981L129.3 13.3978C129.3 13.5978 129.3 13.8977 129.5 13.9977C129.7 14.0977 129.9 14.1977 130.1 14.1977C130.3 14.1977 130.4 14.0977 130.6 13.9977C130.7 13.7977 130.8 13.5978 130.8 13.3978L130.8 9.59841L135.8 13.8977C135.9 13.9977 136.1 14.0977 136.3 14.0977C136.5 14.0977 136.7 13.9977 136.8 13.8977C136.9 13.7977 137 13.5978 137 13.3978ZM10.5 13.3978C10.5 13.2978 10.5 13.0978 10.4 12.9979L8.3 9.59843C8.1 9.19849 7.8 8.89854 7.5 8.59859C7.2 8.39862 6.9 8.19865 6.6 8.09867C7.6 7.99869 8.6 7.59875 9.3 6.89887C9.89999 6.19899 10.2 5.29913 10.2 4.2993C10.2 3.19948 9.8 2.09966 9 1.39977C8 0.699886 6.8 0.299954 5.6 0.399936L0.799995 0.399936C0.599998 0.399936 0.399994 0.499922 0.199997 0.599904C0.0999985 0.799868 0 0.999836 0 1.1998L0 13.1978C0 13.3978 0.0999985 13.5978 0.199997 13.7977C0.399994 13.8977 0.599998 13.9977 0.799995 13.9977C1.09999 13.9977 1.3 13.9977 1.39999 13.7977C1.49999 13.5978 1.59999 13.3978 1.59999 13.1978L1.59999 8.19866L3.99999 8.19866C4.49999 8.19866 4.99999 8.29864 5.49999 8.49861C5.89999 8.79856 6.19999 9.19849 6.49999 9.59843L9.09999 13.6978C9.19999 13.6978 9.19999 13.7977 9.19999 13.7977C9.39999 14.0977 9.99998 14.1977 10.3 13.8977C10.4 13.7977 10.5 13.5978 10.5 13.3978ZM50 4.39927C51.6 4.39927 53 5.29912 53.6 6.69889C54 7.49876 54.1 8.39861 54.1 9.19848C54.1 10.0983 53.9 10.9982 53.6 11.7981C53.3 12.4979 52.8 13.0978 52.1 13.4978C51.5 13.8977 50.7 14.0977 49.9 14.0977C49.2 14.0977 48.6 13.8977 48 13.5978C47.5 13.2978 47 12.7979 46.8 12.198L46.8 13.1978C46.8 13.3978 46.7 13.5978 46.6 13.7977C46.4 13.8977 46.2 13.9977 46 13.9977C45.8 13.9977 45.6 13.8977 45.4 13.7977C45.3 13.6977 45.2 13.3978 45.2 13.1978L45.2 1.09981C45.2 0.899846 45.3 0.699878 45.4 0.599896C45.6 0.499914 45.8 0.399928 46 0.399928C46.2 0.399928 46.4 0.49991 46.6 0.599896C46.7 0.699878 46.8 0.899846 46.8 1.09981L46.8 6.29896C47.1 5.69906 47.5 5.29912 48 4.89919C48.6 4.49926 49.3 4.39927 50 4.39927ZM57.3 14.0977C57.1 14.0977 56.9 13.9977 56.7 13.8977C56.5 13.7977 56.5 13.4978 56.5 13.2978L56.5 2.09965C56.5 1.89968 56.6 1.69971 56.7 1.49975C56.9 1.39977 57.1 1.29978 57.3 1.29978C57.5 1.29978 57.7 1.39976 57.8 1.49975C58 1.59973 58 1.89969 58 2.09965L58 13.2978C58 13.4978 57.9 13.6977 57.8 13.8977C57.7 13.9977 57.5 14.0977 57.3 14.0977ZM73.2 13.3978C73.2 13.1978 73.1 12.9979 72.9 12.7979L68.7 9.19848L72.5 5.79904C72.7 5.59907 72.8 5.39911 72.8 5.19914C72.8 4.7992 72.5 4.49925 72.1 4.49925C71.9 4.49925 71.7 4.59924 71.6 4.69922L67 8.89853L67 2.09965C67 1.89969 67 1.59973 66.8 1.49975C66.7 1.39976 66.5 1.29978 66.3 1.29978C66.1 1.29978 65.9 1.39977 65.7 1.49975C65.6 1.69971 65.5 1.89968 65.5 2.09965L65.5 13.3978C65.5 13.5978 65.5 13.8977 65.7 13.9977C65.9 14.0977 66.1 14.1977 66.3 14.1977C66.5 14.1977 66.6 14.0977 66.8 13.9977C66.9 13.7977 67 13.5978 67 13.3978L67 9.59841L72 13.8977C72.1 13.9977 72.3 14.0977 72.5 14.0977C72.7 14.0977 72.9 13.9977 73 13.8977C73.1 13.7977 73.2 13.5978 73.2 13.3978ZM61.7 3.39944C61.4 3.39944 61.2 3.29945 60.9 3.09949C60.7 2.89952 60.6 2.69955 60.6 2.3996C60.6 2.09965 60.7 1.89968 60.9 1.69971C61.3 1.29978 62 1.29978 62.4 1.69971C62.6 1.89968 62.7 2.09965 62.7 2.3996C62.7 2.69955 62.6 2.89952 62.4 3.09949C62.3 3.29945 62 3.39944 61.7 3.39944ZM5.49998 6.89886C6.29999 6.99884 7.19998 6.69889 7.89999 6.19897C8.49998 5.69906 8.69999 4.99917 8.69999 4.1993C8.79999 3.49942 8.49999 2.69955 7.89999 2.29961C7.19999 1.7997 6.39999 1.59973 5.49998 1.69971L1.59998 1.69971L1.59998 6.89886L5.49998 6.89886ZM123.1 14.0977C122.5 14.0977 122 13.9977 121.4 13.8977C120.9 13.7977 120.4 13.5978 120 13.2978C119.8 13.1978 119.6 12.9979 119.5 12.8979C119.4 12.7979 119.3 12.5979 119.4 12.398C119.4 12.198 119.4 12.098 119.5 11.998C119.6 11.898 119.7 11.7981 119.9 11.7981C120.1 11.7981 120.4 11.898 120.6 12.098C121 12.298 121.3 12.4979 121.7 12.5979C122.2 12.6979 122.6 12.7979 123.1 12.7979C123.7 12.7979 124.2 12.6979 124.7 12.398C125.1 12.198 125.3 11.7981 125.3 11.2981C125.3 11.0982 125.2 10.7982 125.1 10.5983C124.9 10.3983 124.6 10.1983 124.4 10.0983C123.9 9.89838 123.4 9.79839 122.9 9.69841C122 9.59842 121.2 9.19849 120.5 8.69857C120 8.29864 119.7 7.69874 119.8 6.99885C119.8 6.49893 120 5.99901 120.3 5.4991C120.6 5.09916 121.1 4.69923 121.6 4.49926C122.2 4.19931 122.8 4.09932 123.5 4.09932C124 4.09932 124.5 4.19931 125 4.29929C125.4 4.39927 125.9 4.59924 126.2 4.89919C126.6 5.09916 126.8 5.49909 126.9 5.89903C126.9 6.099 126.8 6.19898 126.7 6.29896C126.6 6.39895 126.5 6.49893 126.3 6.49893C126 6.49893 125.8 6.29896 125.6 6.19898C125.3 5.99901 124.9 5.79905 124.6 5.69906C124.2 5.59908 123.8 5.4991 123.4 5.4991C122.9 5.4991 122.4 5.59908 121.9 5.89903C121.5 6.099 121.3 6.59892 121.4 6.99885C121.4 7.19882 121.5 7.49877 121.6 7.69874C121.8 7.8987 122 8.09867 122.3 8.19865C122.7 8.39862 123.2 8.4986 123.7 8.59859C124.4 8.69857 125.1 8.99853 125.7 9.19849C126.1 9.39845 126.5 9.69841 126.7 9.99836C126.9 10.3983 127 10.7982 127 11.2982C127 12.098 126.6 12.7979 126 13.2978C125 13.8977 124 14.1977 123.1 14.0977ZM20.7 11.998C20.6 11.898 20.4 11.7981 20.3 11.7981C20.1 11.898 19.8 11.998 19.7 12.098C19.3 12.298 18.9 12.398 18.5 12.5979C18.1 12.6979 17.6 12.7979 17.2 12.7979C15.3 12.7979 14.2 11.6981 14.1 9.49843L20.3 9.49843C20.5 9.49843 20.7 9.39845 20.8 9.29846C21 9.0985 21 8.89853 21 8.69856C21 7.59874 20.7 6.39894 19.9 5.49909C19.2 4.69922 18.1 4.29928 17 4.29928C16.2 4.29928 15.4 4.49925 14.7 4.89918C14 5.29912 13.4 5.89902 13.1 6.5989C12.7 7.39877 12.5 8.29862 12.5 9.19847C12.5 10.4983 12.9 11.798 13.8 12.7979C14.7 13.6977 15.9 14.1977 17.2 14.0977C17.7 14.0977 18.2 13.9977 18.7 13.8977C19.2 13.7977 19.7 13.5978 20.2 13.2978C20.7 12.9979 20.9 12.6979 20.9 12.398C20.9 12.298 20.8 12.098 20.7 11.998ZM82.1 11.7981C82.2 11.7981 82.4 11.898 82.5 11.998C82.6 12.098 82.7 12.298 82.7 12.398C82.7 12.6979 82.5 12.9979 82 13.2978C81.5 13.5978 81 13.7977 80.5 13.8977C80 13.9977 79.5 14.0977 79 14.0977C77.7 14.1977 76.5 13.6977 75.6 12.7979C74.7 11.798 74.3 10.4983 74.3 9.19847C74.3 8.29862 74.5 7.39877 74.9 6.5989C75.2 5.89902 75.8 5.29912 76.5 4.89918C77.2 4.49925 78 4.29928 78.8 4.29928C79.9 4.29928 81 4.69922 81.7 5.49909C82.5 6.39894 82.8 7.59874 82.8 8.69856C82.8 8.89853 82.8 9.0985 82.6 9.29846C82.5 9.39845 82.3 9.49843 82.1 9.49843L75.9 9.49843C76 11.6981 77.1 12.7979 79 12.7979C79.4 12.7979 79.9 12.6979 80.3 12.5979C80.7 12.398 81.1 12.298 81.5 12.098L82.1 11.7981ZM145.9 11.7981C146 11.7981 146.2 11.898 146.3 11.998C146.4 12.098 146.5 12.298 146.5 12.398C146.5 12.6979 146.3 12.9979 145.8 13.2978C145.3 13.5978 144.8 13.7977 144.3 13.8977C143.8 13.9977 143.3 14.0977 142.8 14.0977C141.5 14.1977 140.3 13.6977 139.4 12.7979C138.5 11.798 138.1 10.4983 138.1 9.19847C138.1 8.29862 138.3 7.39877 138.7 6.5989C139 5.89902 139.6 5.29912 140.3 4.89918C141 4.49925 141.8 4.29928 142.6 4.29928C143.7 4.29928 144.8 4.69922 145.5 5.49909C146.3 6.39894 146.6 7.59874 146.6 8.69856C146.6 8.89853 146.6 9.0985 146.4 9.29846C146.3 9.39845 146.1 9.49843 145.9 9.49843L139.7 9.49843C139.8 11.6981 140.9 12.7979 142.8 12.7979C143.2 12.7979 143.7 12.6979 144.1 12.5979C144.5 12.398 144.9 12.298 145.3 12.098C145.4 11.998 145.7 11.898 145.9 11.7981ZM30.1 4.99917C29.4 4.59924 28.7 4.39927 27.9 4.39927C27.3 4.39927 26.6 4.49926 26.1 4.7992C25.6 5.19914 25.2 5.59907 24.9 6.19897L24.9 5.19914C24.9 4.99918 24.8 4.79921 24.7 4.59924C24.5 4.49925 24.3 4.39927 24.1 4.39927C23.9 4.39927 23.7 4.49926 23.5 4.59924C23.4 4.7992 23.3 4.99917 23.3 5.19914L23.3 16.7972C23.3 16.9972 23.4 17.1972 23.5 17.2972C23.7 17.3971 23.9 17.4971 24.1 17.4971C24.3 17.4971 24.5 17.3971 24.7 17.2972C24.8 17.1972 24.9 16.9972 24.9 16.7972L24.9 12.298C25.1 12.8979 25.6 13.3978 26.1 13.6977C26.7 13.9977 27.3 14.1977 28 14.1977C29.5 14.1977 31 13.2978 31.6 11.898C31.9 11.0982 32.1 10.1983 32.1 9.29846C32.1 8.39861 32 7.49876 31.6 6.69889C31.2 5.99901 30.7 5.39911 30.1 4.99917ZM42.2 4.59924C42 4.49925 41.8 4.39927 41.6 4.39927C41.3 4.39927 41.1 4.49926 41.3 4.69922C41.2 4.89919 41.1 5.09916 41.1 5.29912L41.1 9.99835C41.1 10.7982 40.8 11.4981 40.3 12.098C39.8 12.5979 39 12.8979 38.3 12.8979C37.7 12.8979 37.1 12.6979 36.7 12.298C36.3 11.7981 36.1 11.1982 36.2 10.4983L36.2 5.29912C36.2 5.09916 36.1 4.89919 36 4.69922C35.8 4.59924 35.6 4.49926 35.4 4.49926C35.2 4.49926 35 4.59924 34.8 4.69922C34.7 4.89919 34.6 5.09916 34.6 5.29912L34.6 10.4983C34.5 11.4981 34.8 12.4979 35.4 13.2978C36 13.8977 37 14.2977 37.9 14.1977C38.5 14.2977 39.1 14.0977 39.7 13.7977C40.2 13.4978 40.6 12.9979 40.9 12.4979L40.9 13.4978C40.9 13.6977 41 13.8977 41.1 13.9977C41.2 14.0977 41.4 14.1977 41.6 14.1977L41.7 14.1977C42.1 14.0977 42.4 13.7977 42.4 13.3978L42.4 5.19914C42.4 4.99917 42.3 4.79921 42.2 4.59924ZM107.3 5.09916C107.3 4.59924 107 4.39927 106.5 4.39927L106.1 4.59924C105.5 4.59924 104.9 4.79921 104.4 5.09916C103.9 5.39911 103.5 5.89903 103.3 6.39895L103.3 5.19915C103.3 4.79921 103 4.49926 102.6 4.49926C102.4 4.49926 102.2 4.59925 102 4.69923C101.9 4.89919 101.8 5.09916 101.8 5.29913L101.8 13.3978C101.8 13.5978 101.8 13.8977 102 13.9977C102.2 14.0977 102.4 14.1977 102.6 14.1977C102.8 14.1977 103 14.0977 103.2 13.9977C103.3 13.7977 103.4 13.5978 103.4 13.3978L103.4 8.69857C103.4 7.99868 103.6 7.2988 104 6.79888C104.5 6.29896 105.2 5.89902 105.9 5.89902L106.5 5.79904C106.7 5.79904 106.9 5.69906 107.1 5.59907C107.2 5.49909 107.3 5.29912 107.3 5.09916ZM113.4 4.39927C114.2 4.39927 114.9 4.59924 115.6 4.99917C116.2 5.39911 116.7 5.99901 117.1 6.69889C117.5 7.49876 117.6 8.39861 117.6 9.29846C117.6 10.1983 117.4 11.0982 117.1 11.898C116.5 13.2978 115 14.1977 113.5 14.1977C112.8 14.1977 112.2 13.9977 111.6 13.6977C111.1 13.3978 110.6 12.8979 110.4 12.298L110.4 16.7972C110.4 16.9972 110.3 17.1972 110.2 17.2972C110 17.3971 109.8 17.4971 109.6 17.4971C109.4 17.4971 109.2 17.3971 109 17.2972C108.9 17.1972 108.8 16.9972 108.8 16.7972L108.8 5.19914C108.8 4.99917 108.9 4.7992 109 4.59924C109.2 4.49926 109.4 4.39927 109.6 4.39927C109.8 4.39927 110 4.49925 110.2 4.59924C110.3 4.79921 110.4 4.99918 110.4 5.19914L110.4 6.19897C110.7 5.59907 111.1 5.19914 111.6 4.7992C112.1 4.49926 112.8 4.39927 113.4 4.39927ZM61.1 13.8977C61.3 13.9977 61.5 14.0977 61.7 14.0977C61.9 14.0977 62.1 13.9977 62.3 13.8977C62.4 13.6978 62.5 13.4978 62.5 13.2978L62.5 5.19915C62.5 4.99918 62.4 4.79921 62.3 4.59925C62.1 4.49926 61.9 4.39928 61.7 4.39928C61.5 4.39928 61.3 4.49926 61.1 4.59925C61 4.79921 60.9 4.99918 60.9 5.19915L60.9 13.2978C60.9 13.4978 60.9 13.7977 61.1 13.8977ZM16.9 5.59907C16.2 5.59907 15.4 5.79904 14.9 6.39894C14.4 6.99884 14.1 7.79871 14 8.59858L19.5 8.59858C19.5 7.79871 19.3 6.99885 18.8 6.39894C18.3 5.79904 17.7 5.49909 16.9 5.59907ZM76.8 6.39894C77.3 5.79904 78.1 5.59907 78.8 5.59907C79.5 5.49909 80.2 5.79904 80.7 6.39894C81.2 6.99885 81.4 7.79871 81.4 8.59858L75.9 8.59858C76 7.79871 76.3 6.99884 76.8 6.39894ZM140.5 6.39894C141 5.79904 141.8 5.59907 142.5 5.59907C143.3 5.49909 143.9 5.79904 144.4 6.39894C144.9 6.99885 145.1 7.79871 145.1 8.59858L139.6 8.59858C139.7 7.79871 140 6.99884 140.5 6.39894ZM51.8 11.7981C51.3 12.4979 50.5 12.7979 49.7 12.7979C48.8 12.8979 48.1 12.4979 47.6 11.7981C47.1 10.9982 46.8 9.99835 46.9 9.0985C46.8 8.19865 47.1 7.29879 47.6 6.49892C48.1 5.89902 48.9 5.59907 49.7 5.59907C50.5 5.49909 51.3 5.89902 51.8 6.49892C52.4 7.29879 52.7 8.19864 52.6 9.0985C52.6 10.0983 52.3 10.9982 51.8 11.7981ZM27.6 12.7979C28.4 12.7979 29.2 12.4979 29.7 11.898C30.2 11.0982 30.5 10.1983 30.5 9.29846C30.6 8.39861 30.3 7.39877 29.7 6.59891C28.7 5.3991 26.8 5.29912 25.7 6.39894C25.6 6.49892 25.6 6.49892 25.5 6.59891C25 7.39877 24.7 8.29863 24.8 9.19848C24.7 10.0983 25 11.0982 25.5 11.898C26 12.4979 26.8 12.8979 27.6 12.7979ZM115.2 11.898C114.7 12.4979 113.9 12.7979 113.1 12.7979C112.3 12.8979 111.5 12.4979 111 11.898C110.5 11.0982 110.2 10.0983 110.3 9.19848C110.2 8.29863 110.5 7.39877 111 6.59891L111.2 6.39894C112.3 5.29912 114.2 5.3991 115.2 6.59891C115.8 7.39877 116.1 8.39861 116 9.29846C116 10.1983 115.7 11.0982 115.2 11.898Z" transform="translate(0.6125488 28.302887)" id="Path_35" fill="#CCCCCC" fill-rule="evenodd" stroke="none" />
          <path d="M18.1126 10.7058C18.5126 10.7058 19.0126 10.8058 19.3126 11.1057C19.6126 11.4057 19.8126 11.8056 19.7126 12.2055L19.7126 19.1044C19.8126 19.8043 19.6126 20.5042 19.3126 21.2041C18.9126 21.704 18.4126 22.0039 17.7126 22.2039C16.7126 22.5038 15.7126 22.8038 14.7126 22.9038C13.6126 23.1037 12.5126 23.2037 11.4126 23.2037C9.31256 23.3037 7.21256 22.8038 5.31256 21.804C3.61256 20.9041 2.21256 19.5043 1.41256 17.8046C0.412559 15.9049 0.012558 13.7053 0.012558 11.6056C-0.0874405 9.50598 0.412559 7.40632 1.41256 5.40665C2.31256 3.70693 3.61256 2.30716 5.31256 1.40731C7.11256 0.40747 9.11256 0.0075366 11.2126 0.0075366C13.9126 -0.0924473 16.5126 0.807404 18.6126 2.40714C18.8126 2.60711 19.0126 2.80708 19.2126 3.10703C19.3126 3.40698 19.4126 3.60695 19.4126 3.9069C19.4126 4.30683 19.3126 4.70676 19.0126 5.1067C18.8126 5.40665 18.4126 5.60662 18.1126 5.60662C17.9126 5.60662 17.7126 5.60662 17.5126 5.50663C17.3126 5.40665 17.0126 5.30667 16.8126 5.1067C16.0126 4.5068 15.1126 4.00688 14.2126 3.70693C13.3126 3.40698 12.4126 3.307 11.4126 3.307C9.41257 3.20701 7.51257 3.9069 6.11256 5.40665C4.91257 6.80642 4.31256 8.8061 4.31256 11.5056C4.31256 17.0047 6.71256 19.8043 11.6126 19.8043C13.1126 19.8043 14.5126 19.6043 16.0126 19.2044L16.0126 13.5053L12.4126 13.5053C12.0126 13.5053 11.5126 13.4053 11.2126 13.1054C10.9126 12.8054 10.7126 12.4055 10.8126 12.0056C10.8126 11.6056 10.9126 11.2057 11.2126 10.9057C11.5126 10.6058 12.0126 10.5058 12.4126 10.5058L18.1126 10.7058ZM142.813 22.6038C143.213 22.9038 143.713 23.1037 144.213 23.1037C144.713 23.1037 145.213 23.0038 145.613 22.6038C146.013 22.3039 146.213 21.704 146.213 21.2041L146.213 2.1072C146.213 1.60728 146.013 1.10736 145.613 0.707426C145.213 0.407476 144.713 0.207508 144.213 0.207508C143.713 0.207508 143.213 0.407476 142.813 0.707426C142.413 1.10736 142.213 1.60728 142.213 2.1072L142.213 21.2041C142.213 21.704 142.413 22.2039 142.813 22.6038ZM120.713 20.1042C121.813 20.2042 122.313 20.6042 122.313 21.504C122.313 22.0039 122.113 22.4039 121.713 22.7038C121.213 23.0038 120.513 23.1037 119.913 23.0038L119.013 22.9038C115.413 22.6038 113.613 20.7041 113.613 17.1047L113.613 10.1059L112.013 10.1059C111.513 10.1059 111.113 10.0059 110.713 9.70595C110.413 9.406 110.213 9.00606 110.213 8.60613C110.213 8.2062 110.313 7.80626 110.713 7.50631C111.113 7.20636 111.613 7.10638 112.013 7.10638L113.613 7.10638L113.613 4.20685C113.613 3.70694 113.813 3.20702 114.113 2.80709C114.513 2.40715 115.013 2.30717 115.613 2.30717C116.113 2.30717 116.613 2.50714 117.013 2.80709C117.413 3.20702 117.613 3.70694 117.513 4.20685L117.513 7.10638L120.213 7.10638C120.713 7.10638 121.113 7.20636 121.513 7.50631C121.813 7.80626 122.013 8.2062 122.013 8.60613C122.013 9.00607 121.913 9.406 121.513 9.70595C121.113 10.0059 120.613 10.1059 120.213 10.1059L117.613 10.1059L117.613 17.4047C117.613 19.0044 118.313 19.8043 119.813 19.9043L120.713 20.1042ZM37.6126 19.0044C37.4126 18.7045 37.0126 18.6045 36.7126 18.6045C36.2126 18.7045 35.8126 18.9044 35.4126 18.9044C34.8126 19.2044 34.2126 19.4044 33.6126 19.6043C33.0126 19.8043 32.4126 19.9043 31.8126 19.9043C30.7126 20.0043 29.5126 19.6043 28.7126 18.9044C28.0126 18.0046 27.5126 16.9048 27.5126 15.705L36.9126 15.705C37.7126 15.705 38.1126 15.205 38.1126 14.3052C38.1126 12.9054 37.8126 11.5057 37.2126 10.3058C36.7126 9.20603 35.8126 8.30618 34.8126 7.70628C33.7126 7.10637 32.4126 6.80642 31.1126 6.80642C29.7126 6.80642 28.3126 7.10637 27.1126 7.80626C25.9126 8.50615 25.0126 9.50598 24.4126 10.7058C23.7126 12.1056 23.4126 13.5053 23.4126 15.0051C23.3126 17.3047 24.1126 19.4044 25.6126 21.0041C27.2126 22.5038 29.4126 23.3037 31.6126 23.2037C32.5126 23.2037 33.3126 23.0038 34.2126 22.8038C35.1126 22.6038 35.9126 22.2039 36.7126 21.804C37.4126 21.504 37.9126 20.8041 37.9126 20.1042C38.0126 19.7043 37.8126 19.3044 37.6126 19.0044ZM136.213 8.50614C134.913 7.30634 133.213 6.80642 131.413 6.90641C130.413 6.90641 129.413 7.00639 128.513 7.50631C127.513 7.70627 126.613 8.10621 125.813 8.50614C125.513 8.70611 125.113 9.00606 124.913 9.30601C124.713 9.50598 124.613 9.90591 124.613 10.2059C124.613 10.6058 124.713 11.0057 125.013 11.3057C125.213 11.6056 125.513 11.7056 125.913 11.7056C126.313 11.7056 126.713 11.5056 127.113 11.3057C128.013 10.9057 128.813 10.7058 129.413 10.5058C130.013 10.3058 130.713 10.2059 131.313 10.2059C132.113 10.1059 132.913 10.4058 133.513 10.9057C134.013 11.6056 134.313 12.4055 134.213 13.2054L134.213 13.9053L133.413 13.9053C131.513 13.8053 129.713 14.0052 127.913 14.3052C126.813 14.4052 125.813 14.9051 125.013 15.705C124.413 16.4049 124.013 17.4047 124.113 18.4045C124.113 19.3044 124.313 20.2042 124.813 20.9041C125.313 21.704 126.013 22.3039 126.813 22.7038C127.613 23.1037 128.613 23.3037 129.613 23.3037C130.513 23.3037 131.513 23.1037 132.313 22.6038C133.113 22.1039 133.713 21.404 134.013 20.6042L134.013 21.304C134.013 21.804 134.113 22.2039 134.513 22.6038C134.913 22.9038 135.413 23.1037 135.913 23.1037C136.413 23.1037 136.913 22.9038 137.313 22.6038C137.613 22.2039 137.813 21.704 137.813 21.2041L137.813 13.4053C137.913 11.6056 137.413 9.90591 136.213 8.50614ZM108.613 7.40632C108.213 7.10637 107.813 6.90641 107.313 7.00639L106.813 6.9064C105.813 7.00639 104.913 7.30634 104.113 7.80626C103.313 8.30617 102.713 9.10604 102.313 10.0059L102.313 8.70611C102.313 8.20619 102.213 7.70627 101.813 7.40632C101.513 7.00639 101.013 6.90641 100.513 6.90641C100.013 6.90641 99.5126 7.10637 99.1126 7.40632C98.7126 7.80626 98.5126 8.30618 98.5126 8.8061L98.5126 21.2041C98.5126 21.704 98.7126 22.2039 99.1126 22.6038C99.5126 22.9038 100.013 23.1037 100.513 23.1037C101.013 23.1037 101.513 22.9038 101.913 22.6038C102.313 22.3039 102.513 21.704 102.513 21.2041L102.513 14.5052C102.513 13.5053 102.813 12.6055 103.413 11.8056C104.113 11.0057 105.113 10.5058 106.213 10.5058L107.213 10.4058C107.713 10.4058 108.313 10.2059 108.713 9.90591C109.013 9.50598 109.113 9.10605 109.113 8.60613C109.113 8.20619 108.913 7.70627 108.613 7.40632ZM72.9126 7.90624C71.8126 7.20636 70.6126 6.90641 69.3126 6.90641C68.3126 6.90641 67.2126 7.10637 66.2126 7.60629C65.4126 8.00623 64.7126 8.70611 64.2126 9.60596L64.2126 8.8061C64.3126 8.30618 64.1126 7.80626 63.7126 7.40632C63.3126 7.10637 62.8126 6.90641 62.3126 6.90641C61.8126 6.90641 61.3126 7.00639 60.9126 7.40632C60.6126 7.80626 60.4126 8.30618 60.4126 8.8061L60.4126 25.0034C60.4126 25.5033 60.6126 26.0033 61.0126 26.3032C61.4126 26.6032 62.0126 26.8031 62.5126 26.8031C63.0126 26.8031 63.5126 26.6032 63.9126 26.3032C64.2126 26.0033 64.4126 25.5033 64.4126 25.0034L64.4126 20.5042C64.9126 21.404 65.6126 22.1039 66.4126 22.5038C67.3126 23.0038 68.4126 23.2037 69.4126 23.2037C70.7126 23.2037 71.9126 22.9038 73.0126 22.2039C74.0126 21.504 74.9126 20.6042 75.4126 19.4044C76.0126 18.0046 76.3126 16.6048 76.3126 15.1051C76.3126 13.6053 76.0126 12.2055 75.4126 10.8058C74.8126 9.60596 74.0126 8.60613 72.9126 7.90624ZM44.6126 22.2039C45.9126 22.9038 47.3126 23.2037 48.8126 23.2037C50.2126 23.2037 51.7126 22.9038 53.0126 22.2039C54.2126 21.604 55.2126 20.6042 55.8126 19.4044C56.5126 18.1046 56.8126 16.6048 56.8126 15.1051C56.8126 13.6053 56.5126 12.1056 55.8126 10.8058C55.2126 9.60596 54.2126 8.60613 53.0126 8.00623C51.7126 7.30634 50.3126 7.00639 48.8126 7.00639C47.3126 7.00639 45.9126 7.30634 44.6126 8.00623C43.4126 8.60613 42.4126 9.60596 41.8126 10.8058C41.1126 12.1056 40.8126 13.6053 40.8126 15.1051C40.8126 16.6048 41.1126 18.1046 41.8126 19.4044C42.4126 20.6042 43.4126 21.504 44.6126 22.2039ZM82.8126 22.2039C84.1126 22.9038 85.5126 23.2037 87.0126 23.2037C88.5126 23.2037 89.9126 22.9038 91.2126 22.2039C92.4126 21.604 93.4126 20.6042 94.0126 19.4044C94.7126 18.1046 95.0126 16.6048 95.0126 15.1051C95.0126 13.6053 94.7126 12.1056 94.0126 10.8058C93.4126 9.60596 92.4126 8.60613 91.2126 8.00623C89.9126 7.30634 88.5126 7.00639 87.0126 7.00639C85.5126 7.00639 84.1126 7.30634 82.8126 8.00623C81.6126 8.60613 80.6126 9.60596 80.0126 10.8058C79.3126 12.1056 79.0126 13.6053 79.0126 15.1051C79.0126 16.6048 79.3126 18.1046 80.0126 19.4044C80.6126 20.6042 81.6126 21.604 82.8126 22.2039ZM31.2126 9.70595C30.2126 9.70595 29.3126 10.0059 28.6126 10.7058C27.9126 11.5056 27.5126 12.6055 27.4126 13.6053L34.6126 13.6053C34.6126 12.5055 34.3126 11.5057 33.6126 10.6058C33.1126 10.0059 32.1126 9.70595 31.2126 9.70595ZM48.7126 20.1042C49.8126 20.2042 50.9126 19.7043 51.7126 18.8045C52.5126 17.7046 52.8126 16.4048 52.7126 15.0051C52.8126 13.7053 52.4126 12.3055 51.7126 11.2057C51.0126 10.3058 49.9126 9.80593 48.8126 9.90592C47.7126 9.80593 46.6126 10.3059 45.8126 11.2057C45.0126 12.3055 44.7126 13.6053 44.8126 15.0051C44.7126 16.3049 45.1126 17.7046 45.8126 18.8045C46.5126 19.7043 47.6126 20.2042 48.7126 20.1042ZM87.0126 20.1042C88.1126 20.2042 89.2126 19.7043 90.0126 18.8045C90.8126 17.7046 91.1126 16.4048 91.0126 15.0051C91.1126 13.7053 90.7126 12.3055 90.0126 11.2057C89.3126 10.3058 88.2126 9.80593 87.1126 9.90592C86.0126 9.80593 84.9126 10.3059 84.1126 11.2057C83.3126 12.3055 83.0126 13.6053 83.1126 15.0051C83.0126 16.3049 83.4126 17.7046 84.1126 18.8045C84.7126 19.7043 85.8126 20.2042 87.0126 20.1042ZM68.3126 20.1042C69.4126 20.2042 70.5126 19.7043 71.2126 18.8045C72.0126 17.7046 72.3126 16.4048 72.3126 15.1051C72.4126 13.8053 72.0126 12.4055 71.2126 11.3057C70.5126 10.4058 69.4126 9.90591 68.3126 10.0059C67.2126 9.90592 66.1126 10.4058 65.3126 11.3057C64.5126 12.4055 64.2126 13.7053 64.3126 15.0051C64.2126 16.3049 64.6126 17.6046 65.3126 18.7045C66.0126 19.7043 67.1126 20.1042 68.3126 20.1042ZM130.413 20.3042C131.413 20.3042 132.313 19.9043 133.013 19.2044C133.713 18.4045 134.013 17.5047 134.013 16.4048L134.013 15.705L133.413 15.705C132.313 15.705 131.213 15.705 130.113 15.9049C129.513 16.0049 128.913 16.2049 128.413 16.6048C128.013 16.9048 127.913 17.4047 127.913 17.9046C127.913 18.5045 128.113 19.2044 128.613 19.6043C129.113 20.1042 129.813 20.3042 130.413 20.3042Z" id="Path_36" fill="#FFFFFF" fill-rule="evenodd" stroke="none" />
        </g>
        <g id="Group_51_1_" transform="translate(0 1.8775024)">
          <g id="Group_37_2_" transform="translate(17.150635 0.3630995)">
            <g id="Group">
              <g id="Mask-group">
                <path d="M25.3044 1.59974C8.80443 5.99901 -2.29557 17.8971 0.404433 28.1954C3.10443 38.4937 18.6044 43.3929 35.0044 39.0936C51.4044 34.7943 62.6044 22.7963 60.0044 12.4979C58.0044 4.69923 48.7044 0 37.2044 0C33.2044 0.0999832 29.2044 0.599901 25.3044 1.59974L25.3044 1.59974Z" id="SVGID_1_" fill="none" fill-rule="evenodd" stroke="none" />
                <g clip-path="url(#mask_2)">
                  <path d="M0 0L63.7 0L63.7 41.9931L0 41.9931L0 0Z" transform="translate(-1.1955565 -0.29995376)" id="Rectangle" fill="url(#gradient_1)" fill-rule="evenodd" stroke="none" />
                </g>
              </g>
            </g>
          </g>
          <path d="M25.3017 1.57327C41.7017 -2.72603 57.3017 2.07319 60.0017 12.4715C62.7017 22.8698 51.5017 34.6678 35.1017 39.0671C18.7017 43.4664 3.1017 38.5672 0.401703 28.1689C-2.2983 17.7706 8.9017 5.97255 25.3017 1.57327L25.3017 1.57327Z" transform="translate(17.090454 0.4025675)" id="Path_20_2_" fill="none" fill-rule="evenodd" stroke="#808184" stroke-width="0.5" />
          <path d="M21.4 3.09949C20.9 4.39928 20.5 5.59908 20.1 6.79888C22.8 7.2988 25.5 7.59875 28.2 7.49877C28.3 5.29913 28.4 3.09949 28.6 0.899852L28.9 0.899852C28.7 3.09949 28.6 5.29913 28.5 7.49877C29.8 7.49877 31.1 7.39878 32.4 7.2988C34.2 7.09883 35.9 6.79888 37.6 6.29896C37 4.19931 36.2 2.09965 35.2 0.0999836L35.4 0C36.4 1.99967 37.2 4.09933 37.8 6.19898C39.9 5.69906 41.9 4.89919 43.9 4.09933C43 2.79954 41.9 1.49975 40.8 0.299951L41 0.0999836C42.1 1.29979 43.2 2.59957 44.1 3.99934C45.5 3.39944 46.8 2.69956 48.1 1.89969L48.3 2.29962C47 3.09949 45.6 3.79938 44.3 4.39928C46 6.89887 47.2 9.59842 47.9 12.4979C49.9 11.5981 51.9 10.5983 53.8 9.39846C52.5 6.89887 50.8 4.59924 48.8 2.59957L49 2.39961C51.1 4.39928 52.8 6.6989 54.1 9.19849C55 8.69857 55.8 8.09867 56.7 7.49877L56.9 7.69873C56 8.29864 55.2 8.89854 54.3 9.39846C55.3 11.4981 55.9 13.7977 56 16.0974C56.1 18.297 55.8 20.4966 55.2 22.5963C56.2 22.6963 57.3 22.7963 58.3 22.8962L58.3 23.0962C57.3 22.9962 56.2 22.8962 55.2 22.7963C54.2 25.9957 52.7 28.9952 50.7 31.6948L50.6 31.5948L50.6 31.6948C49 31.3948 47.5 31.1949 45.9 30.9949C45.2 32.6946 44.4 34.3943 43.5 35.9941L43.3 35.8941C44.2 34.1944 45 32.5946 45.7 30.9949C43.5 30.695 41.2 30.495 38.9 30.495C38.6 32.8946 38.1 35.3942 37.6 37.9938C37.7 37.9938 37.8 38.0937 37.9 38.0937L37.8 38.2937L37.4 38.2937L37.4 38.3937L37.1 38.2937L37.1 38.0937C34.5 37.2939 31.8 36.8939 29.1 36.8939C29.2 37.9938 29.3 38.9936 29.4 40.0934L29.1 40.0934C29 38.9936 28.9 37.9938 28.8 36.8939C28.2 36.8939 27.6 36.8939 27 36.9939C24.7 37.0939 22.4 37.4938 20.2 38.0937L21.4 40.4933L21.2 40.5933L20 38.1937C18.3 38.5937 16.6 39.1936 15 39.7934L14.9 39.5935C16.5 38.9936 18.2 38.4937 19.9 37.9937C19.1 36.194 18.5 34.2944 18 32.3947C15.3 32.9946 12.5 33.6945 9.7 34.4943C10.6 36.0941 11.6 37.4938 12.8 38.8936L12.6 39.0936C11.4 37.6938 10.4 36.194 9.5 34.5943C8.3 34.9942 7.1 35.2942 5.9 35.6941L5.8 35.4942C7 35.0942 8.2 34.6943 9.3 34.3943C8 31.9947 7.2 29.4951 6.8 26.7956C4.6 27.2955 2.3 27.8954 0.1 28.4953L0 28.2953C2.3 27.6954 4.5 27.0955 6.8 26.5956C6.7 25.8957 6.7 25.1959 6.7 24.496C6.7 20.9965 7.4 17.5971 8.7 14.3976C7.6 14.0977 6.4 13.7977 5.3 13.3978L5.4 13.1978C6.6 13.5978 7.7 13.8977 8.8 14.1977C9.7 11.898 10.9 9.6984 12.2 7.59874L12.4 7.69873C11.1 9.79838 10 11.998 9.1 14.1977C9.34752 14.2684 9.59581 14.3375 9.84482 14.4051C9.56228 14.337 9.28064 14.2678 9 14.1977C7.7 17.3971 7 20.7966 7 24.296C7 24.9959 7.1 25.6958 7.1 26.3957C10.4 25.5958 13.7 24.9959 17 24.396C17 21.5964 17.2 18.7969 17.6 15.9974C17.4514 15.9717 17.3028 15.9459 17.1542 15.9197C17.3361 15.9464 17.5181 15.9723 17.7 15.9974C18.2 12.9979 18.9 10.0983 19.8 7.29879C18.2 6.99884 16.7 6.59891 15.1 6.19897L15.2 5.89902C16.8 6.39894 18.4 6.79888 19.9 6.99884C20.3 5.79904 20.7 4.49925 21.2 3.19947L21.4 3.09949ZM17.1542 15.9197C14.6937 15.4868 12.2369 14.982 9.84482 14.4051C12.236 15.0541 14.6928 15.5589 17.1542 15.9197ZM39.4 15.2975Q39.1 10.7982 37.9 6.59892C40.1 5.99901 42.1 5.29913 44.1 4.49926C45.8 6.99885 47 9.69841 47.7 12.5979C45 13.6977 42.2 14.5976 39.4 15.2975ZM28.5001 7.8987C28.3001 10.7982 28.3001 13.6977 28.3001 16.5973Q30.8501 16.5973 33.4001 16.2973C35.3001 16.0973 37.3001 15.7974 39.2001 15.3975C39 12.4979 38.5 9.59842 37.8 6.6989C36.1 7.09883 34.3 7.49876 32.5 7.69873C31.1001 7.79872 29.8001 7.79872 28.5001 7.8987ZM17.9 15.7974C18.4 12.8979 19.1 9.99836 20 7.09884C22.7 7.59876 25.5 7.89871 28.2 7.79873C28.1 10.6982 28 13.5978 28 16.4973C24.6 16.5973 21.2 16.2973 17.9 15.7974ZM55.7 16.1973C55.8 18.297 55.5 20.4966 54.9 22.5963C52.7 22.3963 50.5 22.2963 48.4 22.1964C48.6 20.2967 48.7 18.497 48.6 16.5973C48.5 15.2975 48.3 13.9977 48 12.6979C50.1 11.7981 52.1 10.7982 54 9.59843C55 11.6981 55.6 13.8977 55.7 16.1973ZM48.1 22.1963C48.4 20.3966 48.5 18.497 48.3 16.5973C48.2 15.2975 48 13.9977 47.8 12.6979Q43.75 14.4976 39.4 15.3975C39.4 15.7974 39.5 16.1973 39.5 16.5973C39.6 18.397 39.6 20.1967 39.5 22.0964C42.4 22.0964 45.2 22.0964 48.1 22.1963ZM39.2001 16.7972Q39.3501 19.3468 39.2001 22.1964C36.1001 22.2963 33.0001 22.4963 29.9001 22.6963C29.4001 22.6963 28.9001 22.6963 28.4001 22.7963C28.3001 22.0964 28.3001 21.3965 28.3001 20.6966L28.3001 16.7972Q30.85 16.7972 33.4001 16.4973C35.3001 16.2973 37.3001 15.9974 39.1001 15.5974C39.2001 15.9974 39.2001 16.3973 39.2001 16.7972ZM28.1 22.8962L28.1 16.7972C24.7 16.7972 21.3 16.5973 18 16.0974C17.5 18.7969 17.3 21.5965 17.4 24.396C20.9 23.7961 24.5 23.2962 28.1 22.8962ZM50.4 31.4948C52.3 28.7953 53.8 25.8957 54.8 22.7962C52.6 22.5963 50.5 22.4963 48.3 22.3963C47.8 25.2958 47 28.0954 45.9 30.7949C47.4 30.9949 48.9 31.2948 50.4 31.4948ZM48.0001 22.4963C47.5001 25.2958 46.7001 28.0954 45.6001 30.7949C43.4 30.495 41.1 30.295 38.8001 30.295C39.2001 27.5955 39.4001 24.9959 39.5001 22.4963C42.3001 22.3963 45.2001 22.3963 48.0001 22.4963ZM38.5001 30.295C38.9001 27.5955 39.1001 24.9959 39.2001 22.4963C36.1001 22.5963 32.9001 22.7963 29.8001 23.0962C29.3001 23.1962 28.8001 23.1962 28.3001 23.1962C28.4001 25.6958 28.5001 28.0954 28.6001 30.595C31.9001 30.195 35.2001 30.0951 38.5001 30.295ZM28.1001 23.0962C28.2001 25.5958 28.3001 28.0954 28.4001 30.495C25.0001 30.7949 21.5001 31.2949 18.2001 31.9947C17.7001 29.5951 17.4 27.0956 17.3001 24.596C20.9 23.8961 24.5001 23.4961 28.1001 23.0962ZM17.9 32.0947C17.3 29.6951 17 27.1955 17 24.6959C13.7 25.2958 10.4 25.8957 7.09998 26.6956C7.39998 29.3952 8.29998 31.8948 9.59998 34.2944C12.4 33.3945 15.2 32.6946 17.9 32.0947ZM37.2 37.9938C37.7 35.3942 38.2 32.8946 38.5 30.495C35.2 30.395 31.9 30.495 28.7 30.7949C28.8 32.7946 29 34.7943 29.1 36.794C31.8 36.694 34.6 37.1939 37.2 37.9938ZM28.4001 30.7949C28.5001 32.7946 28.6001 34.6943 28.8001 36.694C28.2001 36.694 27.6001 36.794 27.1001 36.794C24.8001 36.9939 22.5001 37.2939 20.2001 37.8938C19.4 36.0941 18.8001 34.1944 18.3001 32.2947C21.6 31.5948 25 31.0949 28.4001 30.7949Z" transform="translate(17.39209 0.07615936)" id="Path_21_2_" fill="#808184" fill-rule="evenodd" stroke="none" />
          <path d="M2.60157 3.27718C3.30157 2.07738 8.10157 2.5773 9.00157 2.77727C10.8016 3.07722 11.8016 1.47748 12.6016 2.5773C12.7016 2.67728 13.6016 2.17737 14.1016 2.07738C15.5016 1.87742 18.1016 1.57746 19.1016 1.3775C20.3016 0.977563 21.5016 0.777596 22.7016 0.577629C25.4016 0.477645 24.4016 1.87742 27.6016 1.07755C28.8016 0.777596 29.5016 0.177694 30.2016 0.0777107C34.1016 -0.922125 25.3016 8.0764 29.7016 6.97658C30.2016 6.87659 31.1016 7.37651 31.1016 7.67646C31.0016 8.57631 35.0016 8.6763 30.7016 9.77612C26.3016 10.8759 33.8016 13.2755 30.6016 14.0754C29.8016 14.2754 24.2016 14.9753 27.9016 16.8749C29.7016 17.7748 25.1016 18.1747 25.0016 18.2747C20.1016 21.9741 23.2016 29.1729 18.1016 26.1734C16.3016 25.1736 16.3016 23.4739 16.1016 22.1741C15.7016 20.1744 16.7016 18.5747 19.3016 18.1747C22.1016 17.7748 19.0016 16.8749 23.0016 15.8751C23.7016 15.6751 25.5016 15.3752 25.8016 14.9753C26.2016 14.3754 25.6016 13.2755 25.5016 13.3755C21.6016 15.4752 19.5016 16.475 23.8016 10.776C25.0016 9.17622 24.7016 7.57648 25.0016 7.27653C26.3016 6.07673 28.1016 6.37668 28.2016 4.377C28.3016 2.67728 25.8016 5.07689 25.1016 4.77694C23.5016 4.17704 26.9016 2.17736 24.2016 2.87725C22.0016 3.47715 23.6016 1.3775 21.9016 1.77743C18.9016 2.5773 19.9016 4.67695 20.7016 5.37684C21.6016 6.27669 20.7016 6.17671 18.9016 6.67663C17.0016 7.17654 17.1016 3.97707 17.0016 7.87643C17.0016 8.57631 15.3016 8.77628 14.5016 9.07623C12.6016 9.77612 13.6016 10.576 10.3016 10.676C8.60157 10.676 10.0016 12.8756 10.0016 13.5755C9.90157 14.5753 7.00157 14.4753 6.70157 14.0754C6.10157 13.3755 2.10157 13.0756 2.00157 12.0757C1.80157 10.8759 6.80157 10.576 6.50157 8.87626C6.20157 7.07656 3.90157 7.57648 1.10157 7.97641C-2.09843 8.57631 2.70157 3.07722 2.60157 3.27718" transform="translate(31.390503 7.9971294)" id="Path_22_2_" fill="#E5E6E7" fill-rule="evenodd" stroke="none" />
          <path d="M5.00961 2.28013C4.20961 2.28013 3.40961 2.58008 2.80961 3.17998C2.40961 3.77988 1.90961 4.37979 1.20961 4.8797C0.609604 5.87954 -0.0903931 7.07934 0.00960541 7.67924C0.109608 8.07918 0.409607 8.27915 1.20961 8.17916L1.8096 8.07918C4.2096 7.67924 6.1096 7.37929 6.4096 8.87905C6.6096 9.67892 5.2096 10.1788 4.0096 10.5788C2.9096 10.9787 1.8096 11.3786 1.9096 12.0785C2.0096 12.7784 3.4096 13.1783 4.7096 13.4783C5.4096 13.5783 6.1096 13.7782 6.7096 14.1782C7.0096 14.3781 7.5096 14.4781 7.9096 14.4781C8.2096 14.4781 8.6096 14.4781 9.0096 14.3781C9.4096 14.2782 9.7096 14.1782 10.0096 13.9782C10.2096 13.8782 10.3096 13.6783 10.3096 13.4783C10.3096 13.1783 10.2096 12.7784 10.1096 12.4785C9.9096 12.0785 9.8096 11.6786 9.8096 11.2787C9.8096 10.9787 10.0096 10.6788 10.5096 10.6788C12.6096 10.5788 13.0096 10.1788 13.5096 9.7789C13.8096 9.47895 14.2096 9.179 14.7096 9.07901C14.9096 8.97903 15.1096 8.97903 15.4096 8.87905C16.3096 8.67908 17.3096 8.47911 17.3096 7.77923L17.3096 6.17949C17.7096 6.67941 18.4096 6.97936 19.0096 6.77939C19.4096 6.67941 19.7096 6.67941 19.9096 6.57942C20.4096 6.57942 20.8096 6.37946 21.2096 6.17949C21.4096 5.97952 21.3096 5.67957 20.9096 5.27964C20.6096 4.97969 20.3096 4.57975 20.2096 4.07984L20.2096 3.37995C20.3096 3.08 20.4096 2.88003 20.6096 2.68007C21.0096 2.38012 21.5096 2.08017 22.1096 1.98018C22.7359 1.80128 22.8018 2.02251 22.8804 2.28589C22.8896 2.31691 22.8991 2.34851 22.9096 2.38012C22.922 2.41116 22.9341 2.44221 22.946 2.47307C23.1267 2.93904 23.2903 3.36132 24.5096 3.08C24.7744 3.04218 24.9677 3.00435 25.1056 2.97735C25.3323 2.93299 25.4096 2.91786 25.4096 2.98002C25.4096 3.08 25.3096 3.27997 25.2096 3.37995L24.9096 3.97985C24.8096 4.07983 24.8096 4.07983 24.8096 4.17982C24.7096 4.57975 24.9096 4.8797 25.3096 4.97969C25.6585 5.0669 26.0835 4.84981 26.5846 4.59386C26.658 4.55639 26.733 4.51808 26.8096 4.47977C27.2096 4.2798 27.6096 4.07984 28.1096 3.97985C28.2096 4.07984 28.3096 4.17982 28.3096 4.47977C28.2096 5.57959 27.5096 5.87954 26.7096 6.27947C26.1096 6.47944 25.6096 6.77939 25.1096 7.17933C24.9096 7.37929 24.8096 7.67924 24.8096 7.97919C24.7096 8.97903 24.4096 9.87888 23.8096 10.6788C21.6096 13.6783 21.1096 14.8781 21.7096 15.178C22.2997 15.473 23.7601 14.7043 25.6154 13.7279L25.7096 13.6783L25.6096 13.9782C25.7096 14.0782 25.8096 14.2782 25.8096 14.3781C25.8976 14.6421 25.9082 14.9061 25.8413 15.17C25.3215 15.4274 24.4014 15.63 23.8096 15.7779C23.6096 15.7779 23.5096 15.8779 23.3096 15.8779C22.1947 16.1433 21.6435 16.4088 21.3568 16.6592C20.7362 17.0049 20.6729 17.3613 20.6096 17.6776C20.6096 17.8013 20.6096 17.908 20.5254 18.0047C20.3141 18.1142 19.9966 18.208 19.5096 18.2775L19.3096 18.2775C18.8059 18.3335 18.3021 18.5147 17.851 18.7862C17.3924 19.0259 16.9739 19.361 16.6096 19.7773C16.1096 20.5771 15.9096 21.477 16.1096 22.3768L16.1096 22.4768C16.1096 22.5768 16.2096 22.7768 16.2096 22.9767C16.2096 24.3765 17.0096 25.6763 18.2096 26.4762C20.0096 27.576 20.9096 27.376 21.4096 26.4762C21.7096 25.7763 22.0096 25.0764 22.1096 24.3765C22.5096 22.5768 23.1096 20.2772 25.3096 18.5775L25.9096 18.4775C26.8096 18.3775 28.5096 18.1775 28.7096 17.6776C28.8096 17.4776 28.7096 17.1777 28.2096 16.9777C27.2096 16.4778 26.9096 16.0779 27.1096 15.7779C27.4096 15.178 29.4096 14.7781 30.4096 14.5781C30.6096 14.5781 30.8096 14.4781 30.9096 14.4781C31.7096 14.2782 31.9096 13.9782 31.8096 13.5783C31.6096 13.0784 31.2096 12.6784 30.8096 12.3785C30.3096 11.9785 30.0096 11.5786 29.7096 11.0787C29.6096 10.6788 29.9096 10.3788 31.0096 10.0789C32.7096 9.67892 33.2096 9.27898 33.1096 8.97903C33.0096 8.67908 32.7096 8.5791 32.3096 8.37913C31.9096 8.17916 31.5096 7.9792 31.5096 7.77923L31.5096 7.67924C31.4096 7.47928 31.2096 7.27931 31.0096 7.17933C30.7096 6.97936 30.5096 6.97936 30.2096 6.87938L29.9096 6.87938C29.2096 7.07934 29.0096 6.97936 28.9096 6.77939C28.8096 6.17949 29.5096 4.8797 30.3096 3.57992C31.1096 2.28013 31.9096 0.980345 31.7096 0.380444C31.6096 0.0804926 31.3096 -0.119474 30.5096 0.0804926C30.2096 0.180476 29.9096 0.28046 29.6096 0.480427C29.1096 0.680395 28.6096 0.880362 28.0096 1.08033C26.3096 1.48026 25.8096 1.2803 25.3096 0.980345C24.6096 0.580411 23.9096 0.380444 23.1096 0.480427C22.2096 0.580411 21.3096 0.680394 20.5096 0.980345C20.2096 1.08033 19.8096 1.18031 19.4096 1.2803C18.8096 1.38028 17.7096 1.58025 16.6096 1.58025C15.9096 1.68023 15.1096 1.78021 14.5096 1.8802C14.2096 1.98018 13.9096 2.08016 13.7096 2.18015L13.1096 2.38012C12.5096 1.68023 12.0096 1.8802 11.3096 2.18015C10.7096 2.4801 10.1096 2.58008 9.40961 2.4801C7.90961 2.28013 6.50961 2.18015 5.00961 2.28013ZM17.851 18.7862C17.4961 18.9998 17.1738 19.2691 16.9096 19.5773C16.4096 20.2772 16.3096 21.077 16.4096 21.9769L16.4096 22.0769C16.4096 22.2768 16.5096 22.3768 16.5096 22.5768C16.5096 23.8766 17.2096 25.1764 18.3096 25.8763C19.9096 26.7761 20.6096 26.6761 21.0096 25.9762C21.3096 25.3763 21.5096 24.6765 21.6096 23.9766C22.0096 22.0769 22.6096 19.6773 24.9096 17.9776C25.1096 17.8776 25.4096 17.8776 25.6096 17.8776C26.5096 17.7776 28.0096 17.5776 28.2096 17.1777C28.2096 17.0777 28.1096 17.0777 27.9096 16.8777C26.7096 16.2778 26.4096 15.6779 26.6096 15.278C27.0096 14.4781 29.1096 14.0782 30.1096 13.8782C30.3096 13.8782 30.5096 13.7782 30.6096 13.7782C31.2096 13.6783 31.3096 13.4783 31.3096 13.2783C31.1096 12.8784 30.7096 12.4785 30.4096 12.2785C29.9096 11.8786 29.5096 11.3786 29.2096 10.8787C29.1096 10.3788 29.4096 9.87888 30.7096 9.47895C32.1096 9.07901 32.6096 8.87905 32.5096 8.77906C32.5096 8.67908 32.2096 8.57909 31.9096 8.47911C31.4096 8.27915 30.9096 7.97919 30.9096 7.57926L30.6096 7.27931C30.4096 7.17933 30.2096 7.07934 30.0096 7.07934L29.8096 7.07934C28.9096 7.27931 28.5096 7.17933 28.4096 6.67941C28.2096 5.97952 29.0096 4.57975 29.8096 3.27997C29.9532 3.01339 30.101 2.75101 30.2435 2.49802C30.7957 1.51747 31.2686 0.677848 31.1096 0.280461C31.1096 0.0804945 30.8096 0.0804945 30.3096 0.180478C30.3096 0.380442 30.0096 0.480426 29.7096 0.680392C29.2096 0.980343 28.6096 1.18031 28.0096 1.38028C26.2698 1.86348 25.7445 1.59941 25.1695 1.31035C25.1497 1.30035 25.1297 1.29032 25.1096 1.28029C24.5096 0.980342 23.8096 0.780375 23.1096 0.880359C22.2096 0.880359 21.4096 1.08033 20.6096 1.38028C20.3096 1.48026 19.9096 1.58024 19.5096 1.68023C18.9096 1.78021 17.8096 1.98018 16.6096 2.08016C15.8096 2.18015 15.1096 2.28013 14.5096 2.38011C14.3096 2.4801 14.0096 2.4801 13.8096 2.58008C13.4096 2.78005 13.0096 2.88003 12.9096 2.78005C12.5454 2.32482 12.1812 2.44994 11.6659 2.62694C11.6153 2.64431 11.5633 2.66219 11.5096 2.68006C10.8096 2.98001 10.1096 3.08 9.40964 2.98001C7.90964 2.68006 6.50964 2.58008 5.00964 2.68006C4.10964 2.78005 3.30964 2.98001 3.10964 3.37995L3.00964 3.27996L2.90965 3.37995C2.90965 3.37995 2.30965 4.17982 1.70964 5.07967C1.10965 5.77955 0.709644 6.67941 0.509644 7.57926C0.509644 7.77922 0.809643 7.87921 1.30964 7.87921L1.90964 7.77922C4.50964 7.27931 6.60964 6.97936 6.90964 8.87904C7.10964 9.87888 5.60964 10.4788 4.30964 10.9787C4.14896 11.043 3.98827 11.1046 3.83215 11.1646C3.01667 11.4776 2.32571 11.7428 2.40964 12.0785C2.50964 12.5784 3.80964 12.8784 5.00964 13.1783C5.80964 13.2783 6.50964 13.5783 7.10964 13.9782C7.40964 14.1782 7.70964 14.1782 8.10964 14.1782C8.50964 14.1782 8.80964 14.1782 9.20964 14.0782C9.50963 14.0782 9.80964 13.9782 10.0096 13.7782C10.1096 13.6783 10.2096 13.5783 10.2096 13.4783C10.2096 13.1783 10.1096 12.8784 10.0096 12.5784C9.90964 12.1785 9.80964 11.7786 9.70964 11.2787C9.70964 10.7787 9.90964 10.3788 10.7096 10.2788C12.7096 10.2788 13.1096 9.87888 13.5096 9.47895C13.9096 9.07902 14.3096 8.77907 14.8096 8.67908C15.0096 8.5791 15.3096 8.47911 15.5096 8.47911C16.2096 8.27915 17.1096 8.07918 17.1096 7.67925C17.1096 6.27948 17.1096 5.77956 17.3096 5.67957C17.5096 5.57959 17.6096 5.67957 17.7096 5.87954C18.0096 6.27947 18.5096 6.57943 19.1096 6.37946C19.4096 6.27947 19.7096 6.17949 20.0096 6.17949C20.4096 6.07951 20.7096 5.97953 21.1096 5.87954C21.2096 5.77956 21.1096 5.67957 20.8096 5.37962C20.4096 4.97969 20.1096 4.57975 20.0096 3.97985Q19.8596 3.52993 20.0096 3.08C20.1096 2.78005 20.2096 2.4801 20.5096 2.28013C21.0096 1.8802 21.5096 1.58025 22.2096 1.38028C23.2096 1.18032 23.3096 1.58025 23.4096 2.08017C23.4195 2.10987 23.4285 2.14055 23.4375 2.17153C23.5194 2.45344 23.6087 2.76025 24.5096 2.58008C25.4096 2.38012 25.7096 2.38012 25.8096 2.68007C25.8905 2.84167 25.7753 3.00328 25.6226 3.21765C25.5864 3.26854 25.548 3.32241 25.5096 3.37995C25.4096 3.57992 25.3096 3.77989 25.2096 3.87987C25.1096 4.07984 25.2096 4.2798 25.4096 4.47977L25.5096 4.47977C25.7096 4.57976 26.2096 4.27981 26.7096 3.97986C27.1096 3.6799 27.7096 3.47994 28.2096 3.37995C28.5096 3.37995 28.8096 3.57992 28.7096 4.17982C28.6096 5.57959 27.8096 5.87954 26.9096 6.27948C26.4096 6.47944 25.9096 6.7794 25.4096 7.17933C25.3096 7.3793 25.3096 7.57926 25.2096 7.77923C25.1096 8.77907 24.7096 9.7789 24.1096 10.5788C22.0096 13.3783 21.5096 14.3781 21.8096 14.5781C22.1998 14.7732 23.6367 14.0168 25.4706 13.0516C25.5167 13.0273 25.563 13.0029 25.6096 12.9784L25.8096 12.9784C25.9096 13.0784 26.0096 13.1783 26.0096 13.2783C26.1096 13.3783 26.1096 13.5783 26.2096 13.6783C26.4096 14.0782 26.4096 14.4781 26.2096 14.8781C26.1576 14.9822 26.0242 15.0795 25.8413 15.17C25.8322 15.206 25.8216 15.242 25.8096 15.278C25.1096 15.5779 24.4096 15.8779 23.6096 15.9779C23.4096 15.9779 23.3096 16.0779 23.1096 16.0779C22.2649 16.2615 21.717 16.4585 21.3568 16.6592C21.1035 16.8805 21.0565 17.0901 21.0096 17.2777C20.9444 17.5385 20.9217 17.7993 20.5254 18.0047C20.4055 18.1425 20.1147 18.26 19.4096 18.3775L19.2096 18.3775C18.7301 18.4254 18.2735 18.5654 17.851 18.7862ZM2.80961 3.17998L3.00961 3.27997L2.90961 3.37995C2.90961 3.27997 2.90961 3.27997 2.80961 3.17998Z" transform="translate(30.982544 7.9943376)" id="Path_23_2_" fill="#808184" fill-rule="evenodd" stroke="none" />
          <path d="M0.1 28.4715C5.4 44.4688 40.4 43.8689 54.8 24.9721C65.6 9.47461 49 -5.52293 21.8 3.07566C21.6 2.87569 21.5 2.77571 21.1 2.47576C34.1 -2.6234 55.7 -0.123815 59.9 12.5741C63.3 25.172 49.4 37.67 31.8 41.1694C18.2 43.8689 3.7 40.3695 0 30.0712C0.1 29.4713 0.1 28.9714 0.1 28.4715" transform="translate(17.592041 0)" id="Path_24_2_" fill="#D61920" fill-rule="evenodd" stroke="none" />
          <path d="M0.0888901 13.7977C29.9889 10.4983 55.6889 7.2988 67.2889 4.39928C72.4889 2.99951 72.5889 1.7997 66.8889 0.999836C62.6889 0.399934 58.3889 0.199967 54.1889 0C59.0889 0.199967 63.6889 0.199967 69.5889 1.09982C74.5889 1.89969 74.1889 2.99951 70.0889 4.29929C60.3889 6.79888 43.8889 9.09851 24.4889 11.4981C16.7889 12.4979 8.48889 13.3978 0.0888882 14.2976C-0.111111 14.1977 0.0888901 13.9977 0.0888901 13.7977" transform="translate(24.803223 8.574762)" id="Path_25_2_" fill="#00ADEE" fill-rule="evenodd" stroke="none" />
          <path d="M0.0888901 13.7977C29.9889 10.4983 55.6889 7.2988 67.2889 4.39928C72.4889 2.99951 72.5889 1.7997 66.8889 0.999836C62.6889 0.399934 58.3889 0.199967 54.1889 0C59.0889 0.199967 63.6889 0.199967 69.5889 1.09982C74.5889 1.89969 74.1889 2.99951 70.0889 4.29929C60.3889 6.79888 43.8889 9.09851 24.4889 11.4981C16.7889 12.4979 8.48889 13.3978 0.0888882 14.2976C-0.111111 14.1977 0.0888901 13.9977 0.0888901 13.7977L0.0888901 13.7977Z" transform="translate(24.803223 8.574762)" id="Path_26_2_" fill="none" fill-rule="evenodd" stroke="#2DAAE1" stroke-width="0.4" />
          <path d="M76.1921 18.8969C76.0921 18.6969 75.9921 18.397 75.8921 18.197C68.4921 17.5971 61.0921 16.8972 53.7921 16.0974C44.4921 15.1975 36.1921 13.9977 27.5921 12.8979C20.0921 11.7981 12.5921 10.6982 5.6921 8.29864C1.1921 6.59891 0.5921 4.89919 5.4921 2.99951C9.5921 1.69972 13.8921 0.699885 18.1921 0C14.1921 0.499918 10.2921 1.29979 6.3921 2.29962C-1.8079 4.69923 -2.3079 6.79888 5.9921 9.39845C10.7921 10.6982 15.6921 11.7981 20.5921 12.4979C27.2921 13.4978 34.1921 14.4976 41.2921 15.2975C47.5921 16.0974 54.0921 16.6973 60.8921 17.3971C65.9921 17.8971 71.0921 18.397 76.1921 18.8969" transform="translate(0 13.074007)" id="Path_27_2_" fill="#00ADEE" fill-rule="evenodd" stroke="none" />
          <path d="M76.1921 18.8969C76.0921 18.6969 75.9921 18.397 75.8921 18.197C68.4921 17.5971 61.0921 16.8972 53.7921 16.0974C44.4921 15.1975 36.1921 13.9977 27.5921 12.8979C20.0921 11.7981 12.5921 10.6982 5.6921 8.29864C1.1921 6.59891 0.5921 4.89919 5.4921 2.99951C9.5921 1.69972 13.8921 0.699885 18.1921 0C14.1921 0.499918 10.2921 1.29979 6.3921 2.29962C-1.8079 4.69923 -2.3079 6.79888 5.9921 9.39845C10.7921 10.6982 15.6921 11.7981 20.5921 12.4979C27.2921 13.4978 34.1921 14.4976 41.2921 15.2975C47.5921 16.0974 54.0921 16.6973 60.8921 17.3971C65.9921 17.8971 71.0921 18.397 76.1921 18.8969L76.1921 18.8969Z" transform="translate(0 13.074007)" id="Path_28_2_" fill="none" fill-rule="evenodd" stroke="#2DAAE1" stroke-width="0.4" />
          <path d="M57.6 0C62.2 0.199967 66.8 0.399934 71.3 0.999836C77.2 1.89969 76.5 2.89952 72.5 4.19931C68.5 5.19915 64.5 6.099 60.6 6.6989C53.2 7.8987 45.8 8.99852 38.4 9.89837C25.5 11.5981 12.7 13.0978 0 14.3976" transform="translate(18.092041 8.574762)" id="Path_29_2_" fill="none" fill-rule="evenodd" stroke="#2DAAE1" stroke-width="0.5" />
          <path d="M17.1044 0C13.1044 0.599902 9.20441 1.49975 5.40441 2.49959C-1.59559 4.59924 -1.79559 6.6989 4.80441 8.79856C8.50441 9.89837 12.2044 10.7982 16.0044 11.3981C24.0044 12.7979 32.1044 13.7977 40.1044 14.7976C52.8044 16.1973 65.6044 17.3971 78.5044 18.5969" transform="translate(5.0876465 12.774069)" id="Path_30_2_" fill="none" fill-rule="evenodd" stroke="#2DAAE1" stroke-width="0.5" />
        </g>
      </g>
    </g>
  </g>
</svg>