<?xml version="1.0" encoding="utf-8"?>
<svg width="256px" height="47px" viewBox="0 0 256 47" version="1.1" xmlns:xlink="http://www.w3.org/1999/xlink" xmlns="http://www.w3.org/2000/svg">
  <desc>Created with Lunacy</desc>
  <defs>
    <radialGradient gradientUnits="objectBoundingBox" cx="49.93171%" cy="50.080715%" fx="49.93171%" fy="50.080715%" r="64.20053%" gradientTransform="translate(0.4993171,0.50080717),scale(0.6596996,1),translate(-0.4993171,-0.50080717)" id="gradient_1">
      <stop offset="0%" stop-color="#E2E3E4" />
      <stop offset="100%" stop-color="#BCBEC0" />
    </radialGradient>
    <path d="M0 0L255.3 0L255.3 45.8L0 45.8L0 0Z" id="path_1" />
    <path d="M25.3017 1.60087C8.9017 5.90321 -2.2983 17.8097 0.401703 28.2154C3.1017 38.621 18.6017 43.4236 35.1017 39.0212C51.6017 34.6188 62.7017 22.8124 60.0017 12.5068C58.0017 4.70256 48.7017 0 37.2017 0C33.2017 0 29.2017 0.600325 25.3017 1.60087L25.3017 1.60087Z" id="path_2" />
    <clipPath id="mask_1">
      <use xlink:href="#path_1" />
    </clipPath>
    <clipPath id="mask_2">
      <use xlink:href="#path_2" />
    </clipPath>
  </defs>
  <g id="logo_cyr" transform="translate(0.25 0.25)">
    <path d="M0 0L255.3 0L255.3 45.8L0 45.8L0 0Z" id="Background" fill="none" fill-rule="evenodd" stroke="none" />
    <g clip-path="url(#mask_1)">
      <g id="Group_43" transform="translate(1.5078125 1.0999908)">
        <g id="Group_42">
          <g id="Group" transform="translate(103.19214 0)">
            <path d="M3.3 20.8C2.9 21.1 2.5 21.3 1.9 21.3C1.4 21.3 0.900002 21.1 0.5 20.8C0.199997 20.4 0 20 0 19.4L0 1.8C0 1.3 0.199997 0.8 0.5 0.5C0.800003 0.2 1.3 0 1.8 0L12.5 0C13 0 13.4 0.0999999 13.7 0.4C14 0.6 14.1 1 14.1 1.5C14.1 1.9 14 2.3 13.7 2.6C13.5 2.9 13 3 12.5 3L3.8 3L3.8 19.4C3.8 20 3.60001 20.5 3.3 20.8ZM25.5 17.1C25.2 17.1 24.8 17.3 24.2 17.6C23.6 17.9 23 18.1 22.5 18.3C22 18.5 21.4 18.5 20.8 18.5C19.5 18.5 18.6 18.2 17.9 17.5C17.2 16.9 16.9 15.8 16.7 14.5L25.6 14.5C26.4 14.5 26.7 14.1 26.7 13.2C26.7 11.8 26.4 10.5 25.9 9.4C25.4 8.3 24.6 7.5 23.6 6.9C22.6 6.3 21.5 6 20.1 6C18.7 6 17.5 6.3 16.4 7C15.3 7.6 14.5 8.5 13.9 9.7C13.3 10.9 13 12.2 13 13.7C13 16.1 13.7 17.9 15.1 19.3C16.5 20.7 18.3 21.3 20.7 21.3C21.5 21.3 22.3 21.2 23.2 21C24.1 20.8 24.8 20.5 25.5 20.1C26.2 19.7 26.6 19.2 26.6 18.5C26.6 18.1 26.5 17.7 26.3 17.5C26.1 17.2 25.8 17.1 25.5 17.1ZM37.2 21.3C38.7 21.3 40 21 41.1 20.4C42.2 19.8 43.1 18.9 43.7 17.7C44.3 16.5 44.6 15.2 44.6 13.7C44.6 12.2 44.3 10.8 43.7 9.7C43.1 8.6 42.2 7.7 41.1 7C40 6.3 38.7 6.1 37.2 6.1C35.7 6.1 34.4 6.4 33.3 7C32.2 7.6 31.3 8.5 30.7 9.7C30.1 10.9 29.8 12.2 29.8 13.7C29.8 15.2 30.1 16.6 30.7 17.7C31.3 18.9 32.2 19.8 33.3 20.4C34.4 21 35.7 21.3 37.2 21.3ZM77.3 20.4C76.2 21 74.9 21.3 73.4 21.3C71.9 21.3 70.6 21 69.5 20.4C68.4 19.8 67.5 18.9 66.9 17.7C66.3 16.6 66 15.2 66 13.7C66 12.2 66.3 10.9 66.9 9.7C67.5 8.5 68.4 7.6 69.5 7C70.6 6.4 71.9 6.1 73.4 6.1C74.9 6.1 76.2 6.3 77.3 7C78.4 7.7 79.3 8.6 79.9 9.7C80.5 10.8 80.8 12.2 80.8 13.7C80.8 15.2 80.5 16.5 79.9 17.7C79.3 18.9 78.4 19.8 77.3 20.4ZM90.3 6.8C91.1 6.3 92 6.1 93.1 6.1C94.4 6.1 95.5 6.4 96.6 7.2C97.6 7.8 98.3 8.7 98.9 9.9C99.4 11 99.7 12.4 99.7 13.9C99.7 15.4 99.4 16.8 98.9 17.9C98.3 19 97.6 19.9 96.6 20.5C95.6 21.1 94.5 21.4 93.2 21.4C92.2 21.4 91.2 21.1 90.4 20.7C89.6 20.3 88.9 19.7 88.5 18.9L88.5 25C88.5 25.5 88.3 25.9 88 26.2C87.6 26.6 87.2 26.7 86.6 26.7C86 26.7 85.5 26.5 85.2 26.2C84.9 25.8 84.7 25.4 84.7 24.9L84.7 7.9C84.7 7.4 84.9 6.9 85.2 6.6C85.5 6.3 85.9 6.1 86.5 6.1C87.1 6.1 87.6 6.3 87.9 6.6C88.2 6.9 88.4 7.4 88.4 7.9L88.4 8.7C88.8 7.9 89.5 7.3 90.3 6.8ZM124.6 6.1C123.7 6.1 122.7 6.2 121.7 6.4C120.7 6.6 119.9 6.9 119.2 7.3C118.8 7.5 118.5 7.8 118.3 8C118.1 8.2 118 8.5 118 8.9C118 9.3 118.1 9.7 118.3 9.9C118.5 10.2 118.8 10.3 119.2 10.3C119.4 10.3 119.8 10.2 120.3 9.9C121.1 9.6 121.8 9.3 122.4 9.2C123 9.1 123.6 8.9 124.2 8.9C125.1 8.9 125.8 9.1 126.2 9.6C126.6 10.1 126.8 10.8 126.8 11.7L126.8 12.4L126 12.4C123.8 12.4 122.1 12.5 120.9 12.8C119.7 13.1 118.8 13.5 118.2 14.1C117.6 14.7 117.4 15.6 117.4 16.7C117.4 17.6 117.6 18.3 118.1 19C118.6 19.7 119.2 20.2 120 20.6C120.8 21 121.7 21.2 122.7 21.2C123.7 21.2 124.5 21 125.2 20.5C125.9 20.1 126.5 19.5 126.8 18.7L126.8 19.4C126.8 19.9 127 20.3 127.3 20.7C127.6 21 128.1 21.2 128.6 21.2C129.2 21.2 129.6 21 129.9 20.7C130.2 20.4 130.4 20 130.4 19.4L130.4 12.1C130.4 10 129.9 8.5 128.9 7.5C128.2 6.6 126.6 6.1 124.6 6.1ZM50.3 21.3C50.9 21.3 51.3 21.1 51.7 20.8C52 20.5 52.2 20 52.2 19.5L52.2 9.2L58.4 9.2L58.4 19.5C58.4 20 58.6 20.5 58.9 20.8C59.2 21.1 59.7 21.3 60.3 21.3C60.9 21.3 61.3 21.1 61.7 20.8C62 20.5 62.2 20 62.2 19.5L62.2 8.2C62.2 7.6 62 7.2 61.7 6.9C61.4 6.6 60.9 6.4 60.3 6.4L50.2 6.4C49.6 6.4 49.2 6.6 48.9 6.9C48.6 7.2 48.4 7.7 48.4 8.3L48.4 19.5C48.4 20 48.6 20.5 48.9 20.8C49.3 21.1 49.7 21.3 50.3 21.3ZM140.4 10.7L140.4 9.2L144.8 9.2L144.8 19.5C144.8 20 145 20.5 145.3 20.8C145.6 21.1 146.1 21.3 146.7 21.3C147.3 21.3 147.7 21.1 148.1 20.8C148.4 20.5 148.6 20 148.6 19.5L148.6 8.2C148.6 7.6 148.4 7.2 148.1 6.9C147.8 6.6 147.3 6.4 146.7 6.4L138.8 6.4C138.2 6.4 137.8 6.6 137.5 6.9C137.2 7.2 137 7.7 137.1 8.3L137.1 10.8C137.1 13.1 136.9 14.8 136.6 15.9C136.3 17 135.7 17.8 134.8 18.3C134.5 18.5 134.2 18.7 134.1 19C133.9 19.3 133.9 19.6 133.9 19.9C133.9 20.3 134 20.7 134.3 20.9C134.6 21.2 134.9 21.3 135.4 21.3C135.7 21.3 136 21.2 136.2 21.1C137.6 20.4 138.7 19.3 139.5 17.7C140 16.1 140.4 13.8 140.4 10.7ZM110 20.8C109.6 21.1 109.2 21.3 108.6 21.3C108 21.3 107.6 21.1 107.3 20.8C107 20.5 106.8 20 106.8 19.5L106.8 9.2L103.4 9.2C102.9 9.2 102.6 9.1 102.3 8.8C102 8.6 101.9 8.2 101.9 7.8C101.9 7.4 102 7.1 102.3 6.8C102.6 6.5 103 6.4 103.4 6.4L114 6.4C114.5 6.4 114.8 6.5 115.1 6.8C115.4 7 115.5 7.4 115.5 7.8C115.5 8.2 115.4 8.5 115.1 8.8C114.8 9.1 114.4 9.2 114 9.2L110.5 9.2L110.5 19.5C110.5 20 110.3 20.5 110 20.8ZM22.6 9.6C22.1 9 21.3 8.7 20.3 8.7C19.2 8.7 18.4 9 17.8 9.6C17.2 10.3 16.8 11.2 16.7 12.4L23.5 12.4C23.5 11.2 23.2 10.2 22.6 9.6ZM34.4 17.2C35.1 18 36 18.4 37.2 18.4C38.4 18.4 39.3 18 40 17.2C40.7 16.4 41 15.3 41 13.7C41 12.2 40.6 11 40 10.2C39.3 9.4 38.4 9 37.2 9C36 9 35 9.4 34.4 10.2C33.7 11 33.4 12.2 33.4 13.7C33.4 15.2 33.8 16.4 34.4 17.2ZM73.4 18.4C72.2 18.4 71.3 18 70.6 17.2C70 16.4 69.6 15.2 69.6 13.7C69.6 12.2 69.9 11 70.6 10.2C71.2 9.4 72.2 9 73.4 9C74.6 9 75.5 9.4 76.2 10.2C76.8 11 77.2 12.2 77.2 13.7C77.2 15.3 76.9 16.4 76.2 17.2C75.5 18 74.6 18.4 73.4 18.4ZM92.1 18.4C90.9 18.4 90 18 89.3 17.2C88.6 16.4 88.3 15.2 88.3 13.7C88.3 12.2 88.6 11 89.3 10.2C89.9 9.4 90.9 9 92.1 9C93.3 9 94.2 9.4 94.9 10.3C95.6 11.1 95.9 12.3 95.9 13.8C95.9 15.3 95.6 16.4 94.9 17.2C94.2 18 93.3 18.4 92.1 18.4ZM122 18C122.5 18.4 123 18.6 123.7 18.6C124.7 18.6 125.5 18.3 126.1 17.6C126.7 16.9 127 16.1 127 15L127 14.4L126.5 14.4C125.2 14.4 124.1 14.5 123.4 14.6C122.6 14.7 122.1 14.9 121.8 15.2C121.5 15.5 121.3 15.9 121.3 16.4C121.3 17.1 121.6 17.6 122 18Z" transform="translate(0.6999512 0)" id="Shape" fill="#FFFFFF" fill-rule="evenodd" stroke="none" />
            <path d="M45.5 12.7C44.9 13.1 44.2 13.3 43.3 13.3C42.4 13.3 41.6 13.1 40.7 12.6C40 12.1 39.6 11.5 39.3 10.7C39 9.9 38.9 9.10001 38.9 8.2C38.9 6.7 39.1 5.6 39.3 4.7C39.6 3.8 39.9 3.1 40.4 2.6C40.9 2.1 41.5 1.7 42.2 1.4C42.5 1.2 43.1 1 43.9 0.800001C44.7 0.6 45.4 0.300001 45.9 0.1C46 0 46.1 0 46.2 0C46.3 0 46.5 0.1 46.6 0.200001C46.7 0.300001 46.8 0.4 46.8 0.6C46.8 0.799999 46.8 0.9 46.7 1C46.7 1.1 46.5 1.2 46.4 1.3C46.2 1.4 45.8 1.6 45.5 1.7C45.2 1.8 44.7 1.9 44.2 2.1C43.3 2.4 42.9 2.5 42.7 2.6C41.9 2.9 41.4 3.3 40.9 4C40.4 4.7 40.2 5.6 40.2 6.7C40.5 6 40.9 5.5 41.5 5.1C42.1 4.7 42.8 4.5 43.6 4.5C44.7 4.5 45.6 4.9 46.3 5.6C47 6.3 47.4 7.4 47.4 8.9C47.4 9.7 47.2 10.5 46.9 11.1C46.6 11.7 46.1 12.3 45.5 12.7ZM97.7 13.3C98.5 13.3 99.3 13.2 100 12.9C100.7 12.6 101.3 12.3 101.9 11.8C102.1 11.6 102.2 11.4 102.2 11.2C102.2 11 102.2 10.9 102.1 10.8C102 10.7 101.9 10.6 101.8 10.6C101.7 10.6 101.5 10.7 101.3 10.8C100.7 11.3 100.1 11.6 99.6 11.8C99.1 12 98.5 12.1 97.9 12.1C96.5 12.1 95.4 11.6 94.7 10.7C94 9.79999 93.6 8.49999 93.6 6.79999C93.6 5.09999 94 3.79999 94.7 2.89999C95.4 1.99999 96.5 1.49999 97.9 1.49999C98.5 1.49999 99.1 1.59999 99.6 1.79999C100.1 1.99999 100.7 2.29999 101.3 2.79999C101.5 2.89999 101.7 2.99999 101.8 2.99999C101.9 2.99999 102 2.89999 102.1 2.79999C102.2 2.69999 102.2 2.49999 102.2 2.39999C102.2 2.19999 102.1 1.89999 101.9 1.79999C101.4 1.29999 100.8 0.999994 100 0.699993C99.3 0.399994 98.5 0.299994 97.7 0.299994C96.5 0.299994 95.5 0.599993 94.6 1.09999C93.7 1.59999 93 2.39999 92.6 3.29999C92.1 4.29999 91.9 5.39999 91.9 6.7C91.9 7.99999 92.1 9.2 92.6 10.2C93.1 11.2 93.7 11.9 94.6 12.4C95.4 13.1 96.5 13.3 97.7 13.3ZM1.3 13.1C1.2 13.2 1 13.3 0.800003 13.3C0.5 13.3 0.400002 13.2 0.199997 12.9C0.0999985 12.8 0 12.6 0 12.4L0 1.1C0 0.9 0.0999985 0.700001 0.199997 0.6C0.299995 0.5 0.5 0.4 0.699997 0.4L5 0.4C6.3 0.4 7.4 0.799999 8.1 1.4C8.8 2.1 9.2 3 9.2 4.2C9.2 5.4 8.8 6.3 8.1 7C7.4 7.7 6.3 8 5 8L1.5 8L1.5 12.6C1.5 12.8 1.4 13 1.3 13.1ZM4.9 6.8L1.5 6.8L1.5 1.8L4.9 1.8C6.8 1.8 7.8 2.6 7.8 4.3C7.8 5.9 6.8 6.8 4.9 6.8ZM75.9 5.3L73.3 8.4C73.8 8.6 74.1 8.8 74.4 8.99999C74.6 9.2 74.9 9.7 75.3 10.3L76.4 12.2C76.5 12.3 76.5 12.5 76.5 12.6C76.5 12.8 76.4 13 76.3 13.1C76.2 13.2 76 13.3 75.8 13.3C75.6 13.3 75.4 13.2 75.2 12.9L73.8 10.6C73.5 10.1 73.2 9.8 72.9 9.6C72.6 9.4 72.2 9.3 71.7 9.3L70.7 9.3L70.7 12.6C70.7 12.8 70.6 13 70.5 13.1C70.4 13.2 70.2 13.3 70 13.3C69.8 13.3 69.6 13.2 69.5 13.1C69.4 13 69.3 12.8 69.3 12.6L69.3 5C69.3 4.8 69.4 4.6 69.5 4.5C69.6 4.4 69.8 4.3 70 4.3C70.2 4.3 70.4 4.4 70.5 4.5C70.6 4.6 70.7 4.8 70.7 5L70.7 8.1L71.9 8.1L74.9 4.5C75.1 4.3 75.3 4.2 75.5 4.2C75.6 4.2 75.8 4.3 75.9 4.4C76 4.5 76.1 4.6 76.1 4.8C76.1 5 76 5.1 75.9 5.3ZM106.7 4.7C107.2 4.4 107.8 4.2 108.5 4.2C109.3 4.2 110 4.4 110.5 4.9C111.1 5.3 111.6 5.8 111.9 6.5C112.2 7.2 112.4 8 112.4 8.9C112.4 9.8 112.2 10.6 111.9 11.3C111.5 12 111.1 12.5 110.5 12.9C110 13.3 109.3 13.5 108.5 13.5C107.8 13.5 107.2 13.3 106.7 13C106.2 12.7 105.8 12.3 105.5 11.7L105.5 15.9C105.5 16.1 105.4 16.3 105.3 16.4C105.2 16.5 105 16.6 104.8 16.6C104.6 16.6 104.4 16.5 104.3 16.4C104.2 16.3 104.1 16.1 104.1 15.9L104.1 5C104.1 4.8 104.2 4.6 104.3 4.5C104.4 4.4 104.6 4.3 104.8 4.3C105 4.3 105.2 4.4 105.3 4.5C105.4 4.6 105.5 4.8 105.5 5L105.5 6C105.8 5.4 106.2 5 106.7 4.7ZM139.6 5.3L137 8.4C137.5 8.6 137.8 8.8 138.2 8.99999C138.4 9.2 138.7 9.7 139.1 10.3L140.2 12.2C140.3 12.3 140.3 12.5 140.3 12.6C140.3 12.8 140.2 13 140.1 13.1C140 13.2 139.8 13.3 139.6 13.3C139.4 13.3 139.2 13.2 139 12.9L137.6 10.6C137.3 10.1 137 9.8 136.7 9.6C136.4 9.4 136 9.3 135.5 9.3L134.5 9.3L134.5 12.6C134.5 12.8 134.4 13 134.3 13.1C134.2 13.2 134 13.3 133.8 13.3C133.6 13.3 133.4 13.2 133.3 13.1C133.2 13 133.1 12.8 133.1 12.6L133.1 5C133.1 4.8 133.2 4.6 133.3 4.5C133.4 4.4 133.6 4.3 133.8 4.3C134 4.3 134.2 4.4 134.3 4.5C134.4 4.6 134.5 4.8 134.5 5L134.5 8.1L135.6 8.1L138.6 4.5C138.8 4.3 139 4.2 139.2 4.2C139.3 4.2 139.5 4.3 139.6 4.4C139.7 4.5 139.8 4.6 139.8 4.8C139.8 5 139.7 5.1 139.6 5.3ZM36.7 4.7L33.7 11.4L30.7 4.6C30.6 4.5 30.6 4.4 30.4 4.3C30.3 4.2 30.2 4.2 30 4.2C29.8 4.2 29.6 4.3 29.5 4.4C29.3 4.5 29.3 4.7 29.3 4.9C29.3 5 29.3 5.1 29.4 5.2L33 12.9L31.7 15.6C31.7 15.7 31.6 15.8 31.6 15.9C31.6 16.1 31.7 16.2 31.8 16.3C31.9 16.4 32.1 16.5 32.3 16.5C32.4 16.5 32.5 16.5 32.7 16.4C32.9 16.3 32.9 16.2 33 16.1L38.1 5.20001C38.1 5.10001 38.2 5.00001 38.2 4.90001C38.2 4.70001 38.1 4.60001 38 4.40001C37.9 4.20001 37.7 4.20001 37.5 4.20001C37 4.3 36.8 4.4 36.7 4.7ZM128.1 13.3C128.6 13.3 129.1 13.2 129.5 13.1C129.9 13 130.4 12.8 130.7 12.6C130.9 12.4 131.1 12.3 131.2 12.2C131.3 12.1 131.3 11.9 131.3 11.8C131.3 11.6 131.3 11.5 131.2 11.4C131.1 11.3 131 11.2 130.9 11.2C130.8 11.2 130.7 11.2 130.6 11.3C130.5 11.4 130.4 11.4 130.2 11.5C129.9 11.7 129.6 11.9 129.3 12C129 12.1 128.7 12.2 128.2 12.2C127.3 12.2 126.6 11.9 126.2 11.3C125.7 10.7 125.5 9.89999 125.5 8.89999C125.5 7.79999 125.7 6.99999 126.2 6.39999C126.7 5.79999 127.4 5.49999 128.2 5.49999C128.6 5.49999 129 5.59999 129.2 5.69999C129.5 5.79999 129.8 5.99999 130.1 6.19999L130.2 6.29999C130.3 6.29999 130.3 6.39998 130.4 6.39998C130.5 6.39998 130.6 6.49998 130.7 6.49998C130.8 6.49998 131 6.39998 131.1 6.29998C131.2 6.19998 131.2 6.09998 131.2 5.89998C131.2 5.69998 131.2 5.59998 131.1 5.39998C131 5.29998 130.9 5.09998 130.6 4.99998C130.3 4.79998 129.9 4.59998 129.4 4.49998C129 4.39998 128.5 4.29998 128 4.29998C127.2 4.29998 126.4 4.49998 125.8 4.89998C125.2 5.29998 124.7 5.79998 124.3 6.49998C123.9 7.19998 123.8 7.99998 123.8 8.89998C123.8 9.79998 124 10.6 124.3 11.3C124.6 12 125.1 12.5 125.8 12.9C126.5 13.1 127.3 13.3 128.1 13.3ZM65.1 4.7L60.4 11.1L60.4 5C60.4 4.8 60.3 4.6 60.2 4.5C60.1 4.4 59.9 4.3 59.7 4.3C59.5 4.3 59.3 4.4 59.2 4.5C59.1 4.6 59 4.8 59 5L59 12.6C59 12.8 59.1 13 59.2 13.1C59.3 13.2 59.5 13.3 59.8 13.3C60.1 13.3 60.4 13.2 60.6 12.9L65.3 6.3L65.3 12.6C65.3 12.8 65.4 13 65.5 13.1C65.6 13.2 65.8 13.3 66 13.3C66.2 13.3 66.4 13.2 66.5 13.1C66.6 13 66.7 12.8 66.7 12.6L66.7 5C66.7 4.8 66.6 4.6 66.5 4.5C66.4 4.4 66.2 4.3 66 4.3C65.8 4.3 65.7 4.3 65.5 4.4C65.4 4.4 65.2 4.6 65.1 4.7ZM17.2 11.5C17.5 11.3 17.7 11.2 17.8 11.2C17.9 11.2 18 11.2 18.2 11.4C18.3 11.5 18.3 11.6 18.3 11.8C18.3 12.1 18.1 12.3 17.7 12.6C17.2 12.9 16.8 13.1 16.3 13.2C15.8 13.3 15.4 13.4 14.9 13.4C13.6 13.4 12.5 13 11.7 12.2C10.9 11.4 10.5 10.3 10.5 8.9C10.5 8 10.7 7.2 11 6.5C11.4 5.8 11.9 5.3 12.5 4.9C13.2 4.5 13.9 4.3 14.7 4.3C15.8 4.3 16.7 4.7 17.4 5.4C18.1 6.1 18.4 7.1 18.4 8.4C18.4 8.6 18.4 8.8 18.3 8.9C18.2 9 18 9.1 17.8 9.1L12 9.1C12.1 11.2 13.1 12.2 14.9 12.2C15.4 12.2 15.7 12.1 16.1 12C16.5 11.9 16.8 11.7 17.2 11.5ZM85 11.2C84.9 11.2 84.7 11.3 84.4 11.5C84 11.7 83.7 11.9 83.3 12C82.9 12.1 82.6 12.2 82.1 12.2C80.3 12.2 79.3 11.2 79.2 9.1L85 9.1C85.2 9.1 85.4 9 85.5 8.9C85.6 8.8 85.6 8.6 85.6 8.4C85.6 7.1 85.3 6.1 84.6 5.4C83.9 4.7 83 4.3 81.9 4.3C81.1 4.3 80.4 4.5 79.7 4.9C79.1 5.3 78.6 5.8 78.2 6.5C77.9 7.2 77.7 8 77.7 8.9C77.7 10.3 78.1 11.4 78.9 12.2C79.7 13 80.8 13.4 82.1 13.4C82.6 13.4 83 13.3 83.5 13.2C84 13.1 84.4 12.9 84.9 12.6C85.3 12.3 85.5 12.1 85.5 11.8C85.5 11.6 85.5 11.5 85.4 11.4C85.3 11.2 85.2 11.2 85 11.2ZM148.7 11.2C148.6 11.2 148.4 11.3 148.1 11.5C147.7 11.7 147.4 11.9 147 12C146.6 12.1 146.3 12.2 145.8 12.2C144 12.2 143 11.2 142.9 9.1L148.7 9.1C148.9 9.1 149.1 9 149.2 8.9C149.3 8.8 149.3 8.6 149.3 8.4C149.3 7.1 149 6.1 148.3 5.4C147.6 4.7 146.7 4.3 145.6 4.3C144.8 4.3 144.1 4.5 143.4 4.9C142.8 5.3 142.3 5.8 141.9 6.5C141.6 7.2 141.4 8 141.4 8.9C141.4 10.3 141.8 11.4 142.6 12.2C143.4 13 144.5 13.4 145.8 13.4C146.3 13.4 146.7 13.3 147.2 13.2C147.7 13.1 148.1 12.9 148.6 12.6C149 12.3 149.2 12.1 149.2 11.8C149.2 11.6 149.2 11.5 149.1 11.4C149 11.2 148.9 11.2 148.7 11.2ZM21.5 13.1C21.4 13.2 21.2 13.3 21 13.3C20.8 13.3 20.6 13.2 20.5 13.2C20.4 13.1 20.3 12.9 20.3 12.7L20.3 5.29999C20.3 4.99999 20.4 4.79999 20.5 4.7C20.6 4.59999 20.8 4.49999 21 4.49999L27 4.49999C27.2 4.49999 27.4 4.6 27.5 4.7C27.6 4.79999 27.7 4.99999 27.7 5.2L27.7 12.6C27.7 12.8 27.6 13 27.5 13.1C27.4 13.2 27.2 13.3 27 13.3C26.8 13.3 26.6 13.2 26.5 13.1C26.4 13 26.3 12.8 26.3 12.6L26.3 5.6L21.7 5.6L21.7 12.6C21.7 12.8 21.6 13 21.5 13.1ZM51.6 5.6L51.6 6.6C51.6 8.5 51.4 10 50.9 11.1C50.5 12.2 49.9 12.9 49 13.4C48.9 13.5 48.8 13.5 48.7 13.5C48.6 13.5 48.4 13.4 48.3 13.3C48.2 13.2 48.1 13.1 48.1 12.9C48.1 12.8 48.1 12.7 48.2 12.6C48.3 12.4 48.4 12.4 48.5 12.3C48.9 12.1 49.3 11.7 49.5 11.3C49.7 10.9 49.9 10.3 50 9.59999C50.1 8.89999 50.2 7.99999 50.2 6.79999L50.2 5.29999C50.2 4.99999 50.3 4.79999 50.4 4.7C50.5 4.59999 50.7 4.49999 50.9 4.49999L55.7 4.49999C55.9 4.49999 56.1 4.6 56.2 4.7C56.3 4.79999 56.4 4.99999 56.4 5.2L56.4 12.6C56.4 12.8 56.3 13 56.2 13.1C56.1 13.2 55.9 13.3 55.7 13.3C55.5 13.3 55.3 13.2 55.2 13.1C55.1 13 55 12.8 55 12.6L55 5.6L51.6 5.6ZM115.7 13.1C115.6 13.2 115.4 13.3 115.2 13.3C114.9 13.3 114.8 13.2 114.7 13.2C114.6 13.1 114.5 12.9 114.5 12.7L114.5 5.29999C114.5 4.99999 114.6 4.79999 114.7 4.7C114.8 4.59999 115 4.49999 115.2 4.49999L121.2 4.49999C121.4 4.49999 121.6 4.6 121.7 4.7C121.8 4.79999 121.9 4.99999 121.9 5.2L121.9 12.6C121.9 12.8 121.8 13 121.7 13.1C121.6 13.2 121.4 13.3 121.2 13.3C121 13.3 120.8 13.2 120.7 13.1C120.6 13 120.5 12.8 120.5 12.6L120.5 5.6L115.9 5.6L115.9 12.6C115.9 12.8 115.8 13 115.7 13.1ZM108.2 12.1C107.3 12.1 106.7 11.8 106.2 11.2C105.7 10.6 105.5 9.79999 105.5 8.7C105.5 7.6 105.7 6.79999 106.2 6.2C106.7 5.6 107.3 5.29999 108.2 5.29999C109.1 5.29999 109.7 5.59999 110.2 6.2C110.7 6.79999 110.9 7.6 110.9 8.7C110.9 9.79999 110.7 10.6 110.2 11.1C109.8 11.8 109.1 12.1 108.2 12.1ZM14.6 5.4C15.4 5.4 15.9 5.6 16.4 6.1C16.8 6.6 17 7.3 17.1 8.1L12 8.1C12.1 7.2 12.4 6.5 12.8 6.1C13.2 5.6 13.9 5.4 14.6 5.4ZM83.7 6.1C83.2 5.6 82.7 5.4 81.9 5.4C81.1 5.4 80.5 5.6 80.1 6.1C79.7 6.5 79.4 7.2 79.3 8.1L84.4 8.1C84.3 7.3 84.1 6.6 83.7 6.1ZM147.4 6.1C146.9 5.6 146.4 5.4 145.6 5.4C144.8 5.4 144.2 5.6 143.8 6.1C143.4 6.5 143.1 7.2 143 8.1L148.1 8.1C148 7.3 147.8 6.6 147.4 6.1ZM43.3 12.1C42.4 12.1 41.7 11.8 41.3 11.2C40.9 10.6 40.7 9.79999 40.7 8.9C40.7 8.4 40.8 7.9 41 7.4C41.2 6.9 41.5 6.49999 41.9 6.2C42.3 5.9 42.9 5.7 43.5 5.7C44.3 5.7 44.9 5.99999 45.4 6.6C45.8 7.2 46.1 8 46.1 9C46.1 9.9 45.9 10.6 45.5 11.3C45.1 12 44.3 12.1 43.3 12.1Z" transform="translate(0 26.899994)" id="Shape" fill="#CCCCCC" fill-rule="evenodd" stroke="none" />
          </g>
          <g id="Group_51_1_" transform="translate(0 0.7250061)">
            <g id="Group_37_2_" transform="translate(17.153442 0.3874817)">
              <g id="Group">
                <g id="Mask-group">
                  <path d="M25.3017 1.60087C8.9017 5.90321 -2.2983 17.8097 0.401703 28.2154C3.1017 38.621 18.6017 43.4236 35.1017 39.0212C51.6017 34.6188 62.7017 22.8124 60.0017 12.5068C58.0017 4.70256 48.7017 0 37.2017 0C33.2017 0 29.2017 0.600325 25.3017 1.60087L25.3017 1.60087Z" id="SVGID_1_" fill="none" fill-rule="evenodd" stroke="none" />
                  <g clip-path="url(#mask_2)">
                    <path d="M0 0L63.7 0L63.7 42.0229L0 42.0229L0 0Z" transform="translate(-1.0982667 -0.400227)" id="Rectangle" fill="url(#gradient_1)" fill-rule="evenodd" stroke="none" />
                  </g>
                </g>
              </g>
            </g>
            <path d="M25.4016 1.57438C41.8016 -2.72796 57.4016 2.07466 60.1016 12.4803C62.8016 22.886 51.6016 34.6924 35.1016 38.9948C18.6016 43.2971 3.1016 38.4945 0.401602 28.0888C-2.2984 17.6832 8.9016 5.87672 25.4016 1.57438L25.4016 1.57438Z" transform="translate(17.090454 0.42697144)" id="Path_20_2_" fill="none" fill-rule="evenodd" stroke="#808184" stroke-width="0.5" />
            <path d="M21.4 3.00163C20.9 4.30234 20.5 5.503 20.1 6.70365C22.8 7.20392 25.5 7.50408 28.2 7.40403C28.3 5.20283 28.4 3.00164 28.6 0.800437L28.9 0.800437C28.7 3.00164 28.6 5.20283 28.5 7.40403C29.8 7.40403 31.1 7.30398 32.4 7.20392C34.2 7.00381 35.9 6.70365 37.6 6.20338C37 4.10223 36.2 2.10114 35.2 0.100055L35.4 0C36.4 2.00109 37.2 4.10223 37.8 6.20338C39.9 5.7031 41.9 4.90267 43.9 4.10223C43 2.80152 41.9 1.50082 40.8 0.300163L41 0.100053C42.1 1.30071 43.2 2.60141 44.1 4.00218C45.5 3.40185 46.8 2.70147 48.1 1.90103L48.2 2.10114C46.9 2.90158 45.5 3.60196 44.2 4.20229C45.9 6.70365 47.1 9.40512 47.8 12.3067C49.8 11.4062 51.8 10.4057 53.7 9.20501C52.4 6.70365 50.7 4.4024 48.7 2.40131L48.9 2.2012C51 4.20229 52.7 6.50354 54 9.0049C54.9 8.50463 55.7 7.9043 56.6 7.30397L56.8 7.50408C55.9 8.10441 55.1 8.70474 54.2 9.20501C55.2 11.3062 55.8 13.6074 55.9 15.9087C56 18.1099 55.7 20.3111 55.1 22.4122C56.1 22.5122 57.2 22.6123 58.2 22.7124L58.2 22.9125C57.2 22.8124 56.1 22.7124 55.1 22.6123C54.1 25.8141 52.6 28.8157 50.6 31.5172L50.5 31.4171L50.5 31.5172C48.9 31.217 47.4 31.0169 45.8 30.8168C45.1 32.5177 44.3 34.2186 43.4 35.8195L43.2 35.7194C44.1 34.0185 44.9 32.4176 45.6 30.8168C43.4 30.5166 41.1 30.3165 38.8 30.3165C38.5 32.7178 38 35.2192 37.5 37.8206C37.6 37.8206 37.7 37.9206 37.8 37.9206L37.7 38.1207L37.5 38.0207L37.5 38.1207L37.2 38.0207L37.2 37.8206C37.1685 37.8109 37.137 37.8013 37.1055 37.7917C37.6037 35.2006 38.1011 32.7089 38.4 30.3165C35.1 30.2164 31.8 30.3165 28.6 30.6167C28.7 32.6177 28.9 34.6188 29 36.6199C29.0667 36.6199 29.1334 36.6202 29.2001 36.6206C29.3 37.7209 29.4 38.7213 29.5 39.8217L29.2 39.8217C29.1 38.7211 29 37.7205 28.9 36.6199L28.8 36.6199C28.6 34.6188 28.5 32.7178 28.4 30.7167Q23.15 31.167 18.2 32.2175C18.7 34.1186 19.3 36.0196 20.1 37.8206C20.93 37.6039 21.7601 37.4264 22.5902 37.2785C21.8177 37.4331 21.053 37.6151 20.3 37.8206L21.5 40.2219L21.3 40.3219L20.1 37.9206C18.4 38.3209 16.7 38.9212 15.1 39.5215L15 39.3214C16.6 38.7211 18.3 38.2208 20 37.7205C19.2 35.9196 18.6 34.0185 18.1 32.1175C15.4 32.7178 12.6 33.4182 9.8 34.2186C10.7 35.8195 11.7 37.2203 12.9 38.621L12.7 38.8211C11.5 37.4204 10.5 35.9196 9.6 34.3187C8.4 34.7189 7.2 35.0191 6 35.4193L5.9 35.2192C7.1 34.819 8.3 34.4187 9.4 34.1186C8.1 31.7173 7.3 29.2159 6.9 26.5144C4.6 27.1148 2.3 27.615 0.0999994 28.2154L0 28.0152C2.3 27.4149 4.5 26.8146 6.8 26.3143C6.7 25.6139 6.7 24.9136 6.7 24.2132C6.7 20.7113 7.4 17.3094 8.7 14.1077C7.6 13.8075 6.4 13.5074 5.3 13.1071L5.4 12.907C6.6 13.3072 7.7 13.6074 8.8 13.9076C9.7 11.6063 10.9 9.40512 12.2 7.30398L12.4 7.40403C11.1 9.50518 10 11.7064 9.1 13.9076C11.9 14.708 14.8 15.3083 17.7 15.7086Q18.45 11.2061 19.8 7.00381C18.2 6.70365 16.7 6.30343 15.1 5.90321L15.2 5.60305C16.8 6.10332 18.4 6.50354 19.9 6.70365C20.3 5.503 20.7 4.20229 21.2 2.90158L21.4 3.00163ZM26.8812 36.7304C25.4509 36.857 24.0205 37.0237 22.5902 37.2785C24.0029 36.9958 25.4415 36.8049 26.8812 36.7304ZM26.8812 36.7304C26.9542 36.7266 27.0271 36.7232 27.1 36.72C27.6666 36.6255 28.2333 36.6202 28.8 36.6199C28.2 36.6199 27.6 36.6199 27 36.72C26.9604 36.7234 26.9208 36.7269 26.8812 36.7304ZM29.2001 36.6206Q33.2929 36.6486 37.1 37.8206L37.1055 37.7917C34.5346 37.0105 31.8673 36.6199 29.2 36.6199L29.2001 36.6206ZM39.4 15.2083Q39.1 10.7058 37.9 6.50353C40 5.90321 42.1 5.20283 44.1 4.40239Q46.65 8.15443 47.7 12.5068C45 13.6074 42.2 14.5079 39.4 15.2083ZM28.4 7.70419C28.3 10.6058 28.2 13.5074 28.2 16.4089C29.9 16.4089 31.6 16.3089 33.3 16.1088C35.2 15.9087 37.2 15.6085 39.1 15.2083C38.9 12.3067 38.4 9.40512 37.7 6.50354C36 6.90376 34.2 7.30397 32.4 7.50408C31 7.60414 29.7 7.70419 28.4 7.70419ZM17.9 15.7085Q18.65 11.3562 20 7.00381C22.7 7.50408 25.4 7.70419 28.2 7.70419C28.1 10.6058 28 13.5074 28 16.4089C24.6 16.509 21.2 16.2088 17.9 15.7085ZM55.6 16.1088C55.7 18.2099 55.4 20.4111 54.8 22.5123C52.7 22.3121 50.5 22.2121 48.3 22.112C48.5 20.211 48.6 18.41 48.5 16.509C48.4 15.2083 48.2 13.9076 47.9 12.6069C50 11.7064 52 10.7058 53.9 9.50517C54.9 11.6063 55.5 13.8075 55.6 16.1088ZM48.0001 22.112C48.3001 20.3111 48.4001 18.41 48.2001 16.509C48.1001 15.2083 47.9001 13.9076 47.7001 12.6069Q43.6501 14.4078 39.3001 15.3083C39.3001 15.7086 39.4001 16.1088 39.4001 16.509C39.5 18.31 39.5 20.111 39.4001 22.012C42.3001 22.012 45.2001 22.012 48.0001 22.112ZM17.5 15.9087C17.1 18.7102 16.9 21.5117 16.9 24.3132C13.7 24.8135 10.4 25.5139 7.00003 26.3143C7.00003 25.6139 6.90003 24.9136 6.90003 24.2132C6.90003 20.7113 7.60003 17.3094 8.90003 14.1077C11.7 14.8081 14.6 15.4084 17.5 15.9087ZM39.2 16.7091Q39.3499 19.2605 39.2 22.112C36.1 22.112 32.9 22.3121 29.8 22.6123C29.3 22.6123 28.8 22.6123 28.3 22.7124C28.2 22.012 28.2 21.3116 28.2 20.6112L28.2 16.7091C29.9 16.7091 31.6 16.609 33.3 16.4089C35.3 16.2088 37.2 15.9087 39.1 15.5084C39.2 15.9087 39.2 16.3089 39.2 16.7091ZM28 22.8124L28 16.7091C24.6 16.7091 21.2 16.509 17.9 16.0087C17.4 18.7102 17.2 21.5117 17.2 24.2132C20.8 23.6129 24.4 23.1126 28 22.8124ZM38.5001 30.1164C38.9001 27.4149 39.1001 24.8135 39.2001 22.3121C36.1001 22.4122 32.9001 22.6123 29.8001 22.9125C29.3001 23.0125 28.8001 23.0125 28.3001 23.0125C28.4001 25.5139 28.5001 27.9152 28.6001 30.4166C31.9001 30.1164 35.2001 30.0163 38.5001 30.1164ZM50.4 31.4171C52.3 28.7156 53.8 25.8141 54.8 22.7124C52.6 22.5123 50.5 22.4122 48.3 22.3121C47.8 25.2137 47 28.0153 45.9 30.7167C47.4 30.9168 48.9 31.1169 50.4 31.4171ZM48.0001 22.4122C47.5001 25.2137 46.7001 28.0152 45.6001 30.7167C43.3 30.4166 41 30.2164 38.8001 30.2164C39.2001 27.515 39.4001 24.9136 39.5001 22.4122C42.3001 22.3121 45.2001 22.3121 48.0001 22.4122ZM28 23.0125C28.1 25.5139 28.2 28.0152 28.3 30.4166C24.9 30.7167 21.5 31.217 18.1 31.9174C17.6 29.5161 17.3 27.0147 17.2 24.5133C20.8 23.913 24.5 23.4127 28 23.0125ZM17.9 32.0174C17.3 29.6161 17 27.1148 17 24.6134C13.7 25.2137 10.4 25.8141 7.09998 26.6145Q7.54998 30.5166 9.49997 34.1186C12.3 33.3181 15.1 32.5177 17.9 32.0174Z" transform="translate(17.492065 0.20037842)" id="Path_21_2_" fill="#808184" fill-rule="evenodd" stroke="none" />
            <path d="M2.54562 3.27951C3.24562 2.07885 8.04562 2.57913 8.94562 2.77924C10.7456 3.0794 11.7456 1.47853 12.5456 2.57913C12.6456 2.67918 13.5456 2.17891 14.0456 2.07885C15.4456 1.87874 18.0456 1.57858 19.0456 1.37847C20.2456 0.978255 21.4456 0.778145 22.6456 0.578037C25.3456 0.477982 24.3456 1.87874 27.5456 1.07831C28.7456 0.778147 29.4456 0.17782 30.1456 0.0777649C34.0456 -0.92278 25.2456 8.08212 29.6456 6.98152C30.1456 6.88147 31.0456 7.38174 31.0456 7.6819C30.9456 8.58239 34.9456 8.68245 30.6456 9.78305C26.2456 10.8836 33.7456 13.285 30.5456 14.0854C29.7456 14.2855 24.1456 14.9859 27.8456 16.8869C29.6456 17.7874 25.0456 18.1876 24.9456 18.2877C20.0456 21.9897 23.1456 29.1936 18.0456 26.192C16.2456 25.1914 16.2456 23.4905 16.0456 22.1898C15.6456 20.1887 16.6456 18.5878 19.2456 18.1876C22.0456 17.7874 18.9456 16.8869 22.9456 15.8864C23.6456 15.6863 25.4456 15.3861 25.7456 14.9859C26.1456 14.3856 25.5456 13.285 25.4456 13.385C21.5456 15.4862 19.4456 16.4867 23.7456 10.7836C24.9456 9.18272 24.6456 7.58185 24.9456 7.28168C26.2456 6.08103 28.0456 6.3812 28.1456 4.38011C28.2456 2.67918 25.7456 5.08049 25.0456 4.78032C23.4456 4.18 26.8456 2.17891 24.1456 2.87929C21.9456 3.47962 23.5456 1.37847 21.8456 1.77869C18.8456 2.57913 19.8456 4.68027 20.6456 5.38065C21.5456 6.28114 20.6456 6.18109 18.8456 6.68136C16.9456 7.18163 17.0456 3.97989 16.9456 7.88201C16.9456 8.58239 15.2456 8.7825 14.4456 9.08267C12.5456 9.78305 13.5456 10.5835 10.2456 10.6835C8.54562 10.6835 9.94562 12.8847 9.94562 13.5851C9.84562 14.5857 6.94562 14.4856 6.64562 14.0854C6.04562 13.385 2.04562 13.0848 1.94562 12.0843C1.74562 10.8836 6.74562 10.5835 6.44562 8.88256C6.14562 7.08158 3.84562 7.58185 1.04562 7.98207C-2.05438 8.5824 2.74562 2.97934 2.54562 3.27951" transform="translate(31.446533 8.026901)" id="Path_22_2_" fill="#E5E6E7" fill-rule="evenodd" stroke="none" />
            <path d="M4.90961 2.3818C4.10961 2.3818 3.30961 2.68196 2.70961 3.28229C2.20961 3.88262 1.70961 4.38289 1.20961 5.08327C0.609608 6.08382 -0.0903931 7.28447 0.00960732 7.8848C0.109608 8.28501 0.409609 8.48512 1.20961 8.38507L1.80961 8.28501C4.20961 7.8848 6.10961 7.58463 6.40961 9.08545C6.60961 9.88589 5.20961 10.3862 4.00961 10.7864C2.90961 11.1866 1.80961 11.5868 1.90961 12.2872C2.00961 12.9876 3.40961 13.3878 4.70961 13.688C5.40961 13.788 6.10961 13.9881 6.70961 14.3883C7.00961 14.5884 7.50961 14.6885 7.90961 14.6885C8.20961 14.6885 8.60961 14.6885 9.00961 14.5884C9.40961 14.4884 9.70961 14.3883 10.0096 14.1882C10.2096 14.0882 10.3096 13.8881 10.3096 13.688C10.3096 13.3878 10.2096 12.9876 10.1096 12.6874C9.90961 12.2872 9.80961 11.887 9.80961 11.4868C9.80961 11.1866 10.0096 10.8864 10.5096 10.8864C12.6096 10.7864 13.0096 10.3862 13.5096 9.98594C13.8096 9.68578 14.2096 9.38561 14.5096 9.28556C14.7096 9.18551 14.9096 9.18551 15.2096 9.08545C16.1096 8.88534 17.1096 8.68523 17.1096 7.98485L17.1096 6.38398C17.204 6.50207 17.3151 6.609 17.4377 6.70084C17.3598 6.84059 17.3096 7.01012 17.3096 7.20943C17.4967 7.09847 17.6527 6.99674 17.7815 6.90423C18.109 7.05188 18.4749 7.09595 18.8096 6.98431C19.2096 6.88425 19.5096 6.88425 19.7096 6.7842C20.2096 6.7842 20.6096 6.58409 21.0096 6.38398C21.2096 6.18387 21.1096 5.88371 20.7096 5.48349C20.4096 5.18333 20.1096 4.78311 20.0096 4.28284L20.0096 3.58246C20.1096 3.2823 20.2096 3.08219 20.4096 2.88208C20.8096 2.58191 21.3096 2.28175 21.9096 2.1817C22.5359 2.00267 22.6018 2.22405 22.6804 2.48762C22.6896 2.51866 22.6991 2.55029 22.7096 2.58191C22.722 2.61299 22.7341 2.64406 22.746 2.67494C22.9267 3.14124 23.0903 3.56382 24.3096 3.2823C24.5744 3.24444 24.7677 3.20659 24.9056 3.17958C25.1323 3.13518 25.2096 3.12004 25.2096 3.18224C25.2096 3.28229 25.1096 3.4824 25.0096 3.58246L24.7096 4.18279C24.6096 4.28284 24.6096 4.28284 24.6096 4.38289C24.5096 4.78311 24.7096 5.08327 25.1096 5.18333C25.4585 5.27061 25.8835 5.05336 26.3846 4.79723C26.458 4.75973 26.533 4.72139 26.6096 4.68306C27.0096 4.48295 27.4096 4.28284 27.9096 4.18279C28.0096 4.28284 28.1096 4.38289 28.1096 4.68306C28.0096 5.78366 27.3096 6.08382 26.5096 6.48404C25.9096 6.68415 25.4096 6.98431 24.9096 7.38453C24.7096 7.58464 24.6096 7.8848 24.6096 8.18496C24.5096 9.18551 24.2096 10.086 23.6096 10.8864C21.4096 13.8881 20.9096 15.0887 21.5096 15.3889C22.0997 15.6841 23.5601 14.9149 25.4154 13.9377L25.5096 13.8881L25.6096 13.9881C25.7096 14.0882 25.8096 14.2883 25.8096 14.3883C25.9096 14.6885 25.9096 14.9887 25.8096 15.2888C25.1096 15.589 24.4096 15.8892 23.6096 15.9892C23.4096 15.9892 23.3096 16.0893 23.1096 16.0893C20.8096 16.5895 20.7096 17.1899 20.6096 17.6901C20.6096 17.9903 20.6096 18.1904 19.4096 18.3905L19.2096 18.3905C18.2096 18.4906 17.3096 18.9908 16.6096 19.7913C16.1096 20.5917 15.9096 21.4922 16.1096 22.3927L16.1096 22.4928C16.1096 22.5928 16.2096 22.7929 16.2096 22.993C16.2096 24.3938 17.0096 25.6945 18.2096 26.4949C20.0096 27.5955 20.9096 27.3954 21.4096 26.4949C21.7096 25.7945 22.0096 25.0942 22.1096 24.3938C22.5096 22.5928 23.1096 20.2916 25.3096 18.5906L25.9096 18.4906C26.8096 18.3905 28.5096 18.1904 28.7096 17.6901C28.8096 17.49 28.7096 17.1899 28.2096 16.9898C27.2096 16.4895 26.9096 16.0893 27.1096 15.7891C27.4096 15.1888 29.4096 14.7886 30.4096 14.5884C30.6096 14.5884 30.8096 14.4884 30.9096 14.4884C31.7096 14.2883 31.9096 13.9881 31.8096 13.5879C31.6096 13.0876 31.2096 12.6874 30.8096 12.3872C30.3096 11.987 30.0096 11.5868 29.7096 11.0865C29.6096 10.6863 29.9096 10.3862 31.0096 10.086C32.7096 9.68578 33.2096 9.28556 33.1096 8.9854C33.0096 8.68523 32.7096 8.58518 32.3096 8.38507C31.9096 8.18496 31.5096 7.98485 31.5096 7.78474L31.5096 7.68469C31.4096 7.48458 31.2096 7.28447 31.0096 7.18442C30.7096 6.98431 30.5096 6.98431 30.2096 6.88425L29.9096 6.88425C29.2096 7.08436 29.0096 6.98431 28.9096 6.7842C28.8096 6.18387 29.5096 4.88316 30.3096 3.58246C31.1096 2.28174 31.9096 0.981038 31.7096 0.380714C31.6096 0.0805511 31.3096 -0.119559 30.5096 0.0805511C30.2096 0.180606 29.9096 0.280659 29.6096 0.480769C29.1096 0.680878 28.6096 0.880986 28.0096 1.0811C26.3096 1.48131 25.8096 1.2812 25.3096 0.981041C24.6096 0.580823 23.9096 0.380714 23.1096 0.480769C22.2096 0.580823 21.3096 0.680878 20.5096 0.981041C20.2096 1.08109 19.8096 1.18115 19.4096 1.2812C18.8096 1.38126 17.6096 1.48131 16.5096 1.68142C15.8096 1.78147 15.0096 1.88153 14.4096 1.98158C14.1096 2.08164 13.8096 2.18169 13.6096 2.28175L13.0096 2.48185C12.4096 1.78147 11.9096 1.98158 11.2096 2.28175C10.6096 2.58191 10.0096 2.68196 9.30961 2.58191C7.80961 2.3818 6.40961 2.28175 4.90961 2.3818ZM18.0887 6.65557C18.0107 6.72932 17.9096 6.81221 17.7815 6.90423C17.6605 6.8497 17.5448 6.78102 17.4377 6.70084C17.5078 6.57512 17.6004 6.47349 17.6989 6.39597C17.8128 6.50279 17.9437 6.59317 18.0887 6.65557ZM2.87627 3.41571L3.00957 3.4824C3.20957 3.08218 4.00957 2.88207 4.90957 2.78201C6.30957 2.68196 7.80957 2.78201 9.00957 3.28229C9.70956 3.38234 10.4096 3.28229 11.1096 2.98212C11.1632 2.96424 11.2152 2.94635 11.2658 2.92896C11.7811 2.75184 12.1453 2.62663 12.5096 3.08218C12.6096 3.18223 13.0096 3.08218 13.4096 2.88207C13.6096 2.78202 13.9096 2.78202 14.1096 2.68196C14.7096 2.58191 15.4096 2.48185 16.2096 2.3818C17.4096 2.28174 18.5096 2.08163 19.1096 1.98158C19.5096 1.88153 19.9096 1.78147 20.2096 1.68142C21.0096 1.38125 21.8096 1.18114 22.7096 1.18114C23.4096 1.08109 24.1096 1.2812 24.7096 1.58136C24.7296 1.5914 24.7496 1.60143 24.7695 1.61144C25.3445 1.9007 25.8698 2.16496 27.6096 1.68142C28.2096 1.48131 28.8096 1.2812 29.3096 0.981035C29.6096 0.780927 29.9096 0.680873 30.2096 0.580818C30.7096 0.480763 31.0096 0.480763 31.0096 0.680873C31.1686 1.07854 30.6957 1.91875 30.1434 2.89998C30.0009 3.15316 29.8531 3.41573 29.7096 3.68251C28.9096 4.98321 28.1096 6.38398 28.3096 7.08436C28.4096 7.58463 28.8096 7.68468 29.7096 7.48458L29.9096 7.48458C30.1096 7.48458 30.3096 7.58463 30.5096 7.68468L30.8096 7.98485C30.8096 8.38507 31.3096 8.68523 31.8096 8.88534C32.1096 8.98539 32.4096 9.08545 32.4096 9.1855C32.5096 9.28555 32.0096 9.48566 30.6096 9.88588C29.3096 10.2861 29.0096 10.7864 29.1096 11.2866C29.4096 11.7869 29.8096 12.2872 30.3096 12.6874C30.6096 12.8875 31.0096 13.2877 31.2096 13.688C31.2096 13.8881 31.1096 14.0882 30.5096 14.1882C30.4096 14.1882 30.2096 14.2883 30.0096 14.2883C29.0096 14.4884 26.9096 14.8886 26.5096 15.689C26.3096 16.0893 26.6096 16.6896 27.8096 17.2899C28.0096 17.49 28.1096 17.49 28.1096 17.5901C27.9096 17.9903 26.4096 18.1904 25.5096 18.2905C25.3096 18.2905 25.0096 18.2905 24.8096 18.3905C22.5096 20.0914 21.9096 22.4927 21.5096 24.3938C21.4096 25.0942 21.2096 25.7945 20.9096 26.3949C20.5096 27.0952 19.8096 27.1953 18.2096 26.2948C17.1096 25.5944 16.4096 24.2937 16.4096 22.993C16.4096 22.7929 16.3096 22.6929 16.3096 22.4927L16.3096 22.3927C16.2096 21.4922 16.3096 20.6918 16.8096 19.9914C17.4096 19.291 18.3096 18.7907 19.2096 18.6907L19.4096 18.6907C20.8096 18.4906 20.8096 18.0903 20.9096 17.6901C21.0096 17.2899 21.1096 16.7896 23.2096 16.2894C23.4096 16.2894 23.5096 16.1893 23.7096 16.1893C24.5096 15.9892 25.9096 15.689 26.1096 15.2888C26.3096 14.8886 26.3096 14.4884 26.1096 14.0882C26.0096 13.9881 26.0096 13.788 25.9096 13.688C25.9096 13.5879 25.8096 13.4878 25.7096 13.3878L25.5096 13.3878L25.4068 13.4419C23.5556 14.4169 22.1005 15.1833 21.6096 14.8886C21.3096 14.6885 21.8096 13.688 23.9096 10.8864C24.5096 10.086 24.9096 9.08545 25.0096 8.0849C25.1096 7.88479 25.1096 7.68468 25.2096 7.48458Q25.9596 6.88425 26.7096 6.58408C27.6096 6.18387 28.4096 5.8837 28.5096 4.48294C28.6096 3.88261 28.3096 3.68251 28.0096 3.68251C27.5096 3.78256 26.9096 3.98267 26.5096 4.28283C26.0096 4.583 25.5096 4.88316 25.3096 4.7831L25.2096 4.7831C25.0096 4.583 24.9096 4.38289 25.0096 4.18278C25.1096 4.08272 25.2096 3.88261 25.3096 3.68251C25.3479 3.62492 25.3863 3.57102 25.4226 3.52009C25.5753 3.30556 25.6904 3.14384 25.6096 2.98212C25.5096 2.68196 25.2096 2.68196 24.3096 2.88207C23.4086 3.06236 23.3194 2.75533 23.2374 2.47322C23.2284 2.44222 23.2195 2.41152 23.2096 2.3818C23.1096 1.88152 23.0096 1.48131 22.0096 1.68142C21.3096 1.88152 20.8096 2.18169 20.3096 2.58191C20.0096 2.78201 19.9096 3.08218 19.8096 3.38234C19.7096 3.6825 19.7096 3.98267 19.8096 4.28283C19.9096 4.88316 20.2096 5.28338 20.6096 5.68359C20.9096 5.98376 21.0096 6.08381 20.9096 6.18387C20.5096 6.28392 20.2096 6.38397 19.8096 6.48403C19.5096 6.48403 19.2096 6.58408 18.9096 6.68414C18.6061 6.78537 18.3281 6.75857 18.0887 6.65557C18.4036 6.35778 18.3413 6.20889 18.1533 6.20889C18.0317 6.20889 17.8575 6.27125 17.6989 6.39597C17.6292 6.33055 17.5659 6.25897 17.5096 6.18387C17.4096 5.98376 17.3096 5.8837 17.1096 5.98376C16.9096 6.08381 16.9096 6.58408 16.9096 7.98485C16.9096 8.38507 16.0096 8.58517 15.3096 8.78528C15.1096 8.78528 14.8096 8.88534 14.6096 8.98539C14.1096 9.08545 13.7096 9.38561 13.3096 9.78583C12.9096 10.186 12.5096 10.5863 10.5096 10.5863C9.70957 10.6863 9.50957 11.0865 9.50957 11.5868C9.50957 11.987 9.60957 12.3872 9.80957 12.6874C9.90957 12.9876 10.0096 13.2877 10.0096 13.5879C10.0096 13.688 9.90957 13.788 9.80957 13.8881C9.60957 14.0882 9.30957 14.1882 9.00957 14.1882C8.60957 14.2883 8.30957 14.2883 7.90957 14.2883C7.50957 14.2883 7.20957 14.2883 6.90957 14.0882C6.30957 13.688 5.60957 13.3878 4.80957 13.2877C3.60957 12.9876 2.30957 12.6874 2.20957 12.1871C2.12564 11.8512 2.8166 11.5858 3.63207 11.2725C3.78819 11.2126 3.94888 11.1508 4.10957 11.0865C5.40957 10.5863 6.90957 9.98594 6.70957 8.98539C6.40957 7.08436 4.30957 7.38452 1.70957 7.88479L1.10957 7.98485C0.60957 7.98485 0.30957 7.88479 0.30957 7.68468C0.509571 6.78419 0.909571 5.8837 1.50957 5.18332C2.10957 4.28283 2.70957 3.4824 2.70957 3.4824L2.80094 3.39098C2.80961 3.41342 2.80961 3.43811 2.80961 3.4824L2.87627 3.41571ZM2.87627 3.41571L2.90961 3.38234L2.70961 3.28229C2.76534 3.33805 2.79001 3.36274 2.80094 3.39098L2.80957 3.38234L2.87627 3.41571Z" transform="translate(31.182495 7.9240723)" id="Path_23_2_" fill="#808184" fill-rule="evenodd" stroke="none" />
            <path d="M0.1 28.4157C5.4 44.4244 40.4 43.8241 54.8 24.9138C65.5 9.50544 48.9 -5.50273 21.7 3.10195C21.5 2.90184 21.4 2.80179 21 2.50163C34.1 -2.60115 55.7 -0.199844 59.8 12.5071C63.2 25.1139 49.3 37.6207 31.7 41.1226C18.2 43.9242 3.6 40.4223 0 30.0166C0 29.5163 0.1 29.0161 0.1 28.4157" transform="translate(17.692139 0)" id="Path_24_2_" fill="#D61920" fill-rule="evenodd" stroke="none" />
            <path d="M0.044445 13.8075C29.9444 10.5057 55.6444 7.30398 67.2444 4.4024C72.4444 3.00163 72.5444 1.80098 66.8444 1.00054C62.6444 0.400218 58.3444 0.20011 54.1444 0C59.0444 0.20011 63.6444 0.20011 69.5444 1.1006C74.5444 1.90104 74.1444 3.00163 70.0444 4.30234C60.3444 6.8037 43.8444 9.10496 24.4444 11.5063C16.7444 12.5068 8.44444 13.4073 0.0444431 14.3078C-0.0555553 14.1077 0.044445 13.9076 0.044445 13.8075" transform="translate(24.847656 8.60495)" id="Path_25_2_" fill="#00ADEE" fill-rule="evenodd" stroke="none" />
            <path d="M0.044445 13.8075C29.9444 10.5057 55.6444 7.30398 67.2444 4.4024C72.4444 3.00163 72.5444 1.80098 66.8444 1.00054C62.6444 0.400218 58.3444 0.20011 54.1444 0C59.0444 0.20011 63.6444 0.20011 69.5444 1.1006C74.5444 1.90104 74.1444 3.00163 70.0444 4.30234C60.3444 6.8037 43.8444 9.10496 24.4444 11.5063C16.7444 12.5068 8.44444 13.4073 0.0444431 14.3078C-0.0555553 14.1077 0.044445 13.9076 0.044445 13.8075L0.044445 13.8075Z" transform="translate(24.847656 8.60495)" id="Path_26_2_" fill="none" fill-rule="evenodd" stroke="#2DAAE1" stroke-width="0.4" />
            <path d="M76.1921 18.8102C76.0921 18.6101 75.9921 18.31 75.8921 18.1099C68.4921 17.5095 61.0921 16.8092 53.7921 16.0087C44.4921 15.1082 36.1921 13.9076 27.5921 12.807C20.0921 11.7064 12.5921 10.6058 5.6921 8.30452C1.1921 6.6036 0.5921 4.90267 5.4921 3.00163C9.5921 1.70093 13.8921 0.700381 18.1921 0C14.1921 0.500272 10.2921 1.30071 6.3921 2.30125C-1.8079 4.70256 -2.3079 6.8037 5.9921 9.40512C10.7921 10.7058 15.6921 11.8064 20.6921 12.5068C27.3921 13.5074 34.2921 14.5079 41.3921 15.3083C47.6921 16.1088 54.1921 16.8092 60.9921 17.4095C66.0921 17.9097 71.0921 18.41 76.1921 18.8102" transform="translate(0 13.107407)" id="Path_27_2_" fill="#00ADEE" fill-rule="evenodd" stroke="none" />
            <path d="M76.1921 18.8102C76.0921 18.6101 75.9921 18.31 75.8921 18.1099C68.4921 17.5095 61.0921 16.8092 53.7921 16.0087C44.4921 15.1082 36.1921 13.9076 27.5921 12.807C20.0921 11.7064 12.5921 10.6058 5.6921 8.30452C1.1921 6.6036 0.5921 4.90267 5.4921 3.00163C9.5921 1.70093 13.8921 0.700381 18.1921 0C14.1921 0.500272 10.2921 1.30071 6.3921 2.30125C-1.8079 4.70256 -2.3079 6.8037 5.9921 9.40512C10.7921 10.7058 15.6921 11.8064 20.6921 12.5068C27.3921 13.5074 34.2921 14.5079 41.3921 15.3083C47.6921 16.1088 54.1921 16.8092 60.9921 17.4095C66.0921 17.9097 71.0921 18.41 76.1921 18.8102L76.1921 18.8102Z" transform="translate(0 13.107407)" id="Path_28_2_" fill="none" fill-rule="evenodd" stroke="#2DAAE1" stroke-width="0.4" />
            <path d="M57.6 0C62.2 0.20011 66.8 0.400218 71.3 1.00054C77.2 1.90103 76.5 2.90158 72.5 4.20229C68.5 5.20283 64.5 6.10332 60.6 6.70365C53.2 7.9043 45.8 9.0049 38.4 9.90539C25.4 11.5063 12.6 13.0071 0 14.4078" transform="translate(18.192139 8.60495)" id="Path_29_2_" fill="none" fill-rule="evenodd" stroke="#2DAAE1" stroke-width="0.5" />
            <path d="M17.1044 0C13.1044 0.600327 9.20441 1.50082 5.40441 2.50136C-1.59559 4.60251 -1.79559 6.70365 4.80441 8.80479C8.50441 9.90539 12.2044 10.8059 16.0044 11.4062C24.0044 12.807 32.1044 13.8075 40.1044 14.8081C52.8044 16.4089 65.6044 17.5095 78.5044 18.7102" transform="translate(5.0876465 12.707184)" id="Path_30_2_" fill="none" fill-rule="evenodd" stroke="#2DAAE1" stroke-width="0.5" />
          </g>
        </g>
      </g>
    </g>
  </g>
</svg>