<?xml version="1.0" encoding="UTF-8" standalone="no"?>
<svg width="9px" height="9px" viewBox="0 0 9 9" version="1.1" xmlns="http://www.w3.org/2000/svg" xmlns:xlink="http://www.w3.org/1999/xlink">
    <!-- Generator: Sketch 43.2 (39069) - http://www.bohemiancoding.com/sketch -->
    <title>Mask</title>
    <desc>Created with Sketch.</desc>
    <defs></defs>
    <g id="Page-1" stroke="none" stroke-width="1" fill-rule="evenodd">
        <g id="external-20" fill-rule="nonzero">
            <g id="Mask">
                <path d="M5.46593 6.88015C5.46593 6.88015 3.0 6.88015 3.0 6.88015C2.44772 6.88015 2.0 7.32787 2.0 7.88015C2.0 8.432435 2.44772 8.88015 3.0 8.88015C3.0 8.88015 8.0 8.88015 8.0 8.88015C8.552284 8.88015 9.0 8.432435 9.0 7.88015C9.0 7.88015 9.0 2.88015 9.0 2.88015C9.0 2.32787 8.552284 1.88015 8.0 1.88015C7.44772 1.88015 7.0 2.32787 7.0 2.88015C7.0 2.88015 7.0 5.58579 7.0 5.58579C7.0 5.58579 1.70711 0.29289 1.70711 0.29289C1.31658 -0.09763 0.68342 -0.09763 0.29289 0.29289C-0.09763 0.68342 -0.09763 1.31658 0.29289 1.70711C0.29289 1.70711 5.46593 6.88015 5.46593 6.88015C5.46593 6.88015 5.46593 6.88015 5.46593 6.88015" id="path-1"></path>
            </g>
        </g>
    </g>
</svg>
