<?xml version="1.0" encoding="utf-8"?>
<svg width="512px" height="512px" viewBox="0 0 512 512" version="1.1" xmlns:xlink="http://www.w3.org/1999/xlink" xmlns="http://www.w3.org/2000/svg">
  <desc>Created with Lunacy</desc>
  <g id="Printer" fill-rule="evenodd">
    <path d="M89 75.999L89 129L75.999 129Q74.1333 129 72.2699 129.092Q70.4065 129.183 68.5498 129.366Q66.6931 129.549 64.8476 129.823Q63.0022 130.096 61.1723 130.46Q59.3425 130.824 57.5327 131.278Q55.723 131.731 53.9377 132.272Q52.1523 132.814 50.3957 133.443Q48.6391 134.071 46.9154 134.785Q45.1918 135.499 43.5052 136.297Q41.8187 137.094 40.1733 137.974Q38.5279 138.853 36.9277 139.812Q35.3275 140.772 33.7762 141.808Q32.225 142.845 30.7264 143.956Q29.2279 145.067 27.7857 146.251Q26.3436 147.435 24.9612 148.687Q23.5788 149.94 22.2596 151.26Q20.9404 152.579 19.6875 153.961Q18.4345 155.344 17.251 156.786Q16.0674 158.228 14.956 159.726Q13.8447 161.225 12.8081 162.776Q11.7716 164.327 10.8125 165.928Q9.85334 167.528 8.97387 169.173Q8.09439 170.819 7.29672 172.505Q6.49904 174.192 5.78508 175.915Q5.07112 177.639 4.44259 179.396Q3.81407 181.152 3.27249 182.938Q2.73092 184.723 2.27759 186.533Q1.82427 188.343 1.4603 190.172Q1.09633 192.002 0.822574 193.848Q0.548824 195.693 0.365956 197.55Q0.183088 199.406 0.0915441 201.27Q0 203.133 0 204.999L0 322.001Q0 323.867 0.0915441 325.73Q0.183088 327.594 0.365956 329.45Q0.548824 331.307 0.822574 333.152Q1.09633 334.998 1.4603 336.828Q1.82427 338.657 2.27759 340.467Q2.73092 342.277 3.27249 344.062Q3.81407 345.848 4.44259 347.604Q5.07112 349.361 5.78508 351.085Q6.49904 352.808 7.29672 354.495Q8.09439 356.181 8.97387 357.827Q9.85334 359.472 10.8125 361.072Q11.7716 362.672 12.8081 364.224Q13.8447 365.775 14.956 367.274Q16.0674 368.772 17.251 370.214Q18.4345 371.656 19.6875 373.039Q20.9404 374.421 22.2596 375.74Q23.5788 377.06 24.9612 378.313Q26.3436 379.565 27.7857 380.749Q29.2279 381.933 30.7264 383.044Q32.225 384.155 33.7762 385.192Q35.3275 386.228 36.9277 387.188Q38.5279 388.147 40.1733 389.026Q41.8187 389.906 43.5052 390.703Q45.1918 391.501 46.9154 392.215Q48.6391 392.929 50.3957 393.557Q52.1523 394.186 53.9377 394.727Q55.723 395.269 57.5327 395.722Q59.3425 396.176 61.1723 396.54Q63.0022 396.904 64.8476 397.177Q66.6931 397.451 68.5498 397.634Q70.4065 397.817 72.2699 397.908Q74.1333 398 75.999 398L89 398L89 466.001Q89 467.13 89.0554 468.258Q89.1108 469.386 89.2215 470.51Q89.3322 471.633 89.4979 472.75Q89.6636 473.867 89.8839 474.975Q90.1042 476.082 90.3785 477.178Q90.6529 478.273 90.9807 479.354Q91.3085 480.434 91.6889 481.498Q92.0693 482.561 92.5015 483.604Q92.9336 484.647 93.4164 485.668Q93.8992 486.689 94.4315 487.685Q94.9638 488.681 95.5443 489.649Q96.1249 490.618 96.7522 491.557Q97.3796 492.496 98.0522 493.403Q98.7249 494.31 99.4413 495.182Q100.158 496.055 100.916 496.892Q101.674 497.729 102.473 498.527Q103.271 499.326 104.108 500.084Q104.945 500.842 105.818 501.559Q106.69 502.275 107.597 502.948Q108.504 503.62 109.443 504.248Q110.382 504.875 111.351 505.456Q112.319 506.036 113.315 506.568Q114.311 507.101 115.332 507.584Q116.353 508.066 117.396 508.498Q118.439 508.931 119.502 509.311Q120.566 509.691 121.646 510.019Q122.727 510.347 123.822 510.621Q124.918 510.896 126.025 511.116Q127.133 511.336 128.25 511.502Q129.367 511.668 130.49 511.778Q131.614 511.889 132.742 511.945Q133.87 512 134.999 512L377.001 512Q378.13 512 379.258 511.945Q380.386 511.889 381.51 511.779Q382.633 511.668 383.75 511.502Q384.867 511.336 385.975 511.116Q387.082 510.896 388.178 510.621Q389.273 510.347 390.354 510.019Q391.434 509.691 392.498 509.311Q393.561 508.931 394.604 508.498Q395.647 508.066 396.668 507.584Q397.689 507.101 398.685 506.568Q399.681 506.036 400.649 505.456Q401.618 504.875 402.557 504.248Q403.496 503.62 404.403 502.948Q405.31 502.275 406.182 501.559Q407.055 500.842 407.892 500.084Q408.729 499.326 409.527 498.527Q410.326 497.729 411.084 496.892Q411.842 496.055 412.559 495.182Q413.275 494.31 413.948 493.403Q414.62 492.496 415.248 491.557Q415.875 490.618 416.456 489.649Q417.036 488.681 417.569 487.685Q418.101 486.689 418.584 485.668Q419.066 484.647 419.499 483.604Q419.931 482.561 420.311 481.498Q420.691 480.434 421.019 479.354Q421.347 478.273 421.621 477.178Q421.896 476.082 422.116 474.975Q422.336 473.867 422.502 472.75Q422.668 471.633 422.779 470.51Q422.889 469.386 422.945 468.258Q423 467.13 423 466.001L423 399L436.001 399Q437.867 399 439.73 398.908Q441.594 398.817 443.45 398.634Q445.307 398.451 447.152 398.177Q448.998 397.904 450.828 397.54Q452.657 397.176 454.467 396.722Q456.277 396.269 458.062 395.728Q459.848 395.186 461.604 394.557Q463.361 393.929 465.084 393.215Q466.808 392.501 468.495 391.703Q470.181 390.906 471.827 390.026Q473.472 389.147 475.072 388.187Q476.672 387.228 478.224 386.192Q479.775 385.155 481.274 384.044Q482.772 382.933 484.214 381.749Q485.656 380.565 487.039 379.313Q488.421 378.06 489.74 376.74Q491.06 375.421 492.313 374.039Q493.565 372.656 494.749 371.214Q495.933 369.772 497.044 368.273Q498.155 366.775 499.192 365.224Q500.228 363.672 501.188 362.072Q502.147 360.472 503.026 358.827Q503.906 357.181 504.703 355.495Q505.501 353.808 506.215 352.085Q506.929 350.361 507.557 348.604Q508.186 346.848 508.727 345.062Q509.269 343.277 509.722 341.467Q510.176 339.657 510.54 337.828Q510.904 335.998 511.177 334.152Q511.451 332.307 511.634 330.45Q511.817 328.594 511.908 326.73Q512 324.867 512 323.001L512 204.999Q512 203.133 511.908 201.27Q511.817 199.406 511.634 197.55Q511.451 195.693 511.177 193.848Q510.904 192.002 510.54 190.172Q510.176 188.342 509.722 186.533Q509.269 184.723 508.727 182.938Q508.186 181.152 507.557 179.396Q506.929 177.639 506.215 175.915Q505.501 174.192 504.703 172.505Q503.906 170.819 503.026 169.173Q502.147 167.528 501.188 165.928Q500.228 164.327 499.192 162.776Q498.155 161.225 497.044 159.726Q495.933 158.228 494.749 156.786Q493.565 155.344 492.313 153.961Q491.06 152.579 489.74 151.26Q488.421 149.94 487.039 148.687Q485.656 147.435 484.214 146.251Q482.772 145.067 481.274 143.956Q479.775 142.845 478.224 141.808Q476.672 140.772 475.072 139.812Q473.472 138.853 471.827 137.974Q470.181 137.094 468.495 136.297Q466.808 135.499 465.084 134.785Q463.361 134.071 461.604 133.443Q459.848 132.814 458.062 132.272Q456.277 131.731 454.467 131.278Q452.657 130.824 450.828 130.46Q448.998 130.096 447.152 129.823Q445.307 129.549 443.45 129.366Q441.594 129.183 439.73 129.092Q437.867 129 436.001 129L423 129L423 75.999Q423 74.1333 422.908 72.2699Q422.817 70.4065 422.634 68.5498Q422.451 66.6931 422.177 64.8476Q421.904 63.0022 421.54 61.1723Q421.176 59.3425 420.722 57.5327Q420.269 55.723 419.728 53.9377Q419.186 52.1523 418.557 50.3957Q417.929 48.6391 417.215 46.9154Q416.501 45.1918 415.703 43.5052Q414.906 41.8187 414.026 40.1733Q413.147 38.5279 412.188 36.9277Q411.228 35.3275 410.192 33.7762Q409.155 32.225 408.044 30.7264Q406.933 29.2279 405.749 27.7857Q404.565 26.3436 403.313 24.9612Q402.06 23.5788 400.74 22.2596Q399.421 20.9404 398.039 19.6875Q396.656 18.4345 395.214 17.251Q393.772 16.0674 392.274 14.956Q390.775 13.8447 389.224 12.8081Q387.672 11.7716 386.072 10.8125Q384.472 9.85334 382.827 8.97387Q381.181 8.09439 379.495 7.29672Q377.808 6.49904 376.085 5.78508Q374.361 5.07112 372.604 4.44259Q370.848 3.81407 369.062 3.27249Q367.277 2.73092 365.467 2.27759Q363.657 1.82427 361.828 1.4603Q359.998 1.09633 358.152 0.822574Q356.307 0.548824 354.45 0.365956Q352.594 0.183088 350.73 0.0915441Q348.867 0 347.001 0L164.999 0Q163.133 0 161.27 0.0915441Q159.406 0.183088 157.55 0.365956Q155.693 0.548824 153.848 0.822574Q152.002 1.09633 150.172 1.4603Q148.342 1.82427 146.533 2.27759Q144.723 2.73092 142.938 3.27249Q141.152 3.81407 139.396 4.44259Q137.639 5.07112 135.915 5.78508Q134.192 6.49904 132.505 7.29672Q130.819 8.09439 129.173 8.97387Q127.528 9.85334 125.928 10.8125Q124.327 11.7716 122.776 12.8081Q121.225 13.8447 119.726 14.956Q118.228 16.0674 116.786 17.251Q115.344 18.4345 113.961 19.6875Q112.579 20.9404 111.26 22.2596Q109.94 23.5788 108.687 24.9612Q107.435 26.3436 106.251 27.7857Q105.067 29.2279 103.956 30.7264Q102.845 32.225 101.808 33.7762Q100.772 35.3275 99.8125 36.9277Q98.8533 38.5279 97.9739 40.1733Q97.0944 41.8187 96.2967 43.5052Q95.499 45.1918 94.7851 46.9154Q94.0711 48.6391 93.4426 50.3957Q92.8141 52.1523 92.2725 53.9377Q91.7309 55.723 91.2776 57.5327Q90.8243 59.3425 90.4603 61.1723Q90.0963 63.0022 89.8226 64.8476Q89.5488 66.6931 89.366 68.5498Q89.1831 70.4065 89.0915 72.2699Q89 74.1333 89 75.999ZM119 129L119 74.999Q119 73.8943 119.054 72.791Q119.108 71.6877 119.217 70.5883Q119.325 69.489 119.487 68.3963Q119.649 67.3036 119.865 66.2201Q120.08 65.1367 120.348 64.0651Q120.617 62.9936 120.938 61.9365Q121.258 60.8794 121.63 59.8393Q122.002 58.7992 122.425 57.7786Q122.848 56.758 123.32 55.7594Q123.793 54.7608 124.313 53.7866Q124.834 52.8124 125.402 51.8649Q125.97 50.9174 126.584 49.9989Q127.197 49.0804 127.855 48.1931Q128.513 47.3059 129.214 46.4519Q129.915 45.598 130.657 44.7795Q131.399 43.961 132.18 43.1799Q132.961 42.3988 133.779 41.6569Q134.598 40.9151 135.452 40.2143Q136.306 39.5135 137.193 38.8555Q138.08 38.1974 138.999 37.5837Q139.917 36.97 140.865 36.4021Q141.812 35.8342 142.786 35.3134Q143.761 34.7927 144.759 34.3204Q145.758 33.8481 146.778 33.4253Q147.799 33.0026 148.839 32.6305Q149.879 32.2583 150.936 31.9376Q151.993 31.617 153.065 31.3486Q154.137 31.0802 155.22 30.8646Q156.303 30.6491 157.396 30.487Q158.489 30.325 159.588 30.2167Q160.688 30.1084 161.791 30.0542Q162.894 30 163.999 30L348.001 30Q349.106 30 350.209 30.0542Q351.312 30.1084 352.412 30.2167Q353.511 30.325 354.604 30.487Q355.696 30.6491 356.78 30.8646Q357.863 31.0802 358.935 31.3486Q360.006 31.617 361.063 31.9376Q362.12 32.2583 363.161 32.6305Q364.201 33.0026 365.221 33.4253Q366.242 33.8481 367.24 34.3204Q368.239 34.7927 369.213 35.3134Q370.187 35.8342 371.135 36.4021Q372.082 36.97 373.001 37.5837Q373.919 38.1974 374.807 38.8555Q375.694 39.5135 376.548 40.2143Q377.402 40.9151 378.22 41.6569Q379.039 42.3988 379.82 43.1799Q380.601 43.961 381.343 44.7795Q382.085 45.598 382.786 46.4519Q383.486 47.3059 384.144 48.1931Q384.802 49.0804 385.416 49.9989Q386.03 50.9174 386.598 51.8649Q387.166 52.8124 387.686 53.7866Q388.207 54.7608 388.679 55.7594Q389.152 56.758 389.574 57.7786Q389.997 58.7992 390.369 59.8393Q390.742 60.8794 391.062 61.9365Q391.383 62.9936 391.651 64.0651Q391.92 65.1367 392.135 66.2201Q392.351 67.3036 392.513 68.3963Q392.675 69.489 392.783 70.5883Q392.891 71.6877 392.946 72.791Q393 73.8943 393 74.999L393 129L119 129ZM73.9989 371L88.9999 371L88.9999 321L79.9989 321Q79.6307 321 79.2629 320.982Q78.8951 320.964 78.5287 320.928Q78.1623 320.892 77.798 320.838Q77.4338 320.784 77.0727 320.712Q76.7116 320.64 76.3544 320.55Q75.9972 320.461 75.6449 320.354Q75.2925 320.247 74.9458 320.123Q74.5992 319.999 74.259 319.858Q73.9188 319.717 73.586 319.56Q73.2531 319.402 72.9284 319.229Q72.6036 319.055 72.2878 318.866Q71.972 318.677 71.6659 318.472Q71.3597 318.268 71.064 318.048Q70.7682 317.829 70.4836 317.595Q70.199 317.362 69.9262 317.115Q69.6533 316.867 69.393 316.607Q69.1326 316.347 68.8853 316.074Q68.6381 315.801 68.4045 315.516Q68.1709 315.232 67.9516 314.936Q67.7322 314.64 67.5276 314.334Q67.3231 314.028 67.1338 313.712Q66.9445 313.396 66.7709 313.072Q66.5974 312.747 66.4399 312.414Q66.2825 312.081 66.1416 311.741Q66.0007 311.401 65.8766 311.054Q65.7526 310.707 65.6457 310.355Q65.5388 310.003 65.4494 309.646Q65.3599 309.288 65.2881 308.927Q65.2162 308.566 65.1622 308.202Q65.1082 307.838 65.0721 307.471Q65.036 307.105 65.0179 306.737Q64.9999 306.369 64.9999 306.001L64.9999 305.999Q64.9999 305.631 65.0179 305.263Q65.036 304.895 65.0721 304.529Q65.1082 304.162 65.1622 303.798Q65.2162 303.434 65.2881 303.073Q65.3599 302.712 65.4494 302.355Q65.5388 301.997 65.6457 301.645Q65.7526 301.293 65.8766 300.946Q66.0007 300.599 66.1416 300.259Q66.2825 299.919 66.4399 299.586Q66.5974 299.253 66.7709 298.929Q66.9445 298.604 67.1338 298.288Q67.3231 297.972 67.5276 297.666Q67.7322 297.36 67.9516 297.064Q68.1709 296.768 68.4045 296.484Q68.6381 296.199 68.8854 295.926Q69.1326 295.653 69.393 295.393Q69.6533 295.133 69.9262 294.885Q70.199 294.638 70.4836 294.405Q70.7682 294.171 71.064 293.952Q71.3597 293.732 71.6659 293.528Q71.972 293.323 72.2878 293.134Q72.6037 292.945 72.9284 292.771Q73.2531 292.597 73.586 292.44Q73.9188 292.283 74.259 292.142Q74.5992 292.001 74.9459 291.877Q75.2925 291.753 75.6449 291.646Q75.9973 291.539 76.3544 291.45Q76.7116 291.36 77.0727 291.288Q77.4339 291.216 77.7981 291.162Q78.1623 291.108 78.5287 291.072Q78.8952 291.036 79.2629 291.018Q79.6307 291 79.9989 291L432.001 291Q432.369 291 432.737 291.018Q433.105 291.036 433.471 291.072Q433.837 291.108 434.202 291.162Q434.566 291.216 434.927 291.288Q435.288 291.36 435.645 291.45Q436.002 291.539 436.355 291.646Q436.707 291.753 437.054 291.877Q437.401 292.001 437.741 292.142Q438.081 292.283 438.414 292.44Q438.747 292.597 439.071 292.771Q439.396 292.945 439.712 293.134Q440.028 293.323 440.334 293.528Q440.64 293.732 440.936 293.952Q441.231 294.171 441.516 294.405Q441.801 294.638 442.074 294.885Q442.346 295.133 442.607 295.393Q442.867 295.653 443.114 295.926Q443.362 296.199 443.595 296.484Q443.829 296.768 444.048 297.064Q444.267 297.36 444.472 297.666Q444.677 297.972 444.866 298.288Q445.055 298.604 445.229 298.929Q445.402 299.253 445.56 299.586Q445.717 299.919 445.858 300.259Q445.999 300.599 446.123 300.946Q446.247 301.293 446.354 301.645Q446.461 301.997 446.55 302.355Q446.64 302.712 446.712 303.073Q446.783 303.434 446.838 303.798Q446.892 304.162 446.928 304.529Q446.964 304.895 446.982 305.263Q447 305.631 447 305.999L447 306.001Q447 306.369 446.982 306.737Q446.964 307.105 446.928 307.471Q446.892 307.838 446.838 308.202Q446.783 308.566 446.712 308.927Q446.64 309.288 446.55 309.645Q446.461 310.003 446.354 310.355Q446.247 310.707 446.123 311.054Q445.999 311.401 445.858 311.741Q445.717 312.081 445.56 312.414Q445.402 312.747 445.229 313.071Q445.055 313.396 444.866 313.712Q444.677 314.028 444.472 314.334Q444.267 314.64 444.048 314.936Q443.829 315.232 443.595 315.516Q443.362 315.801 443.114 316.074Q442.867 316.347 442.607 316.607Q442.346 316.867 442.074 317.115Q441.801 317.362 441.516 317.595Q441.231 317.829 440.936 318.048Q440.64 318.268 440.334 318.472Q440.028 318.677 439.712 318.866Q439.396 319.055 439.071 319.229Q438.747 319.402 438.414 319.56Q438.081 319.717 437.741 319.858Q437.401 319.999 437.054 320.123Q436.707 320.247 436.355 320.354Q436.002 320.461 435.645 320.55Q435.288 320.64 434.927 320.712Q434.566 320.784 434.202 320.838Q433.837 320.892 433.471 320.928Q433.105 320.964 432.737 320.982Q432.369 321 432.001 321L423 321L423 371L438.001 371Q439.081 371 440.16 370.947Q441.239 370.894 442.314 370.788Q443.388 370.682 444.457 370.524Q445.525 370.365 446.585 370.155Q447.644 369.944 448.692 369.681Q449.74 369.419 450.773 369.105Q451.807 368.792 452.824 368.428Q453.841 368.064 454.839 367.651Q455.836 367.237 456.813 366.776Q457.789 366.314 458.742 365.805Q459.694 365.296 460.621 364.74Q461.547 364.185 462.445 363.585Q463.344 362.985 464.211 362.341Q465.079 361.698 465.914 361.013Q466.749 360.327 467.549 359.602Q468.349 358.877 469.113 358.113Q469.877 357.349 470.602 356.549Q471.327 355.749 472.013 354.914Q472.698 354.079 473.341 353.211Q473.985 352.344 474.585 351.445Q475.185 350.547 475.74 349.621Q476.295 348.695 476.805 347.742Q477.314 346.789 477.776 345.813Q478.237 344.837 478.651 343.839Q479.064 342.841 479.428 341.824Q479.792 340.807 480.105 339.773Q480.419 338.74 480.681 337.692Q480.944 336.644 481.154 335.585Q481.365 334.525 481.524 333.457Q481.682 332.389 481.788 331.314Q481.894 330.239 481.947 329.16Q482 328.081 482 327.001L482 318.347L482 204.999Q482 203.919 481.947 202.84Q481.894 201.761 481.788 200.686Q481.682 199.611 481.524 198.543Q481.365 197.475 481.154 196.415Q480.944 195.356 480.681 194.308Q480.419 193.26 480.105 192.227Q479.792 191.193 479.428 190.176Q479.064 189.159 478.651 188.161Q478.237 187.163 477.775 186.187Q477.314 185.211 476.804 184.258Q476.295 183.305 475.74 182.379Q475.185 181.453 474.585 180.554Q473.985 179.656 473.341 178.789Q472.698 177.921 472.013 177.086Q471.327 176.251 470.602 175.451Q469.877 174.651 469.113 173.887Q468.349 173.123 467.549 172.398Q466.748 171.673 465.913 170.987Q465.079 170.302 464.211 169.659Q463.343 169.015 462.445 168.415Q461.547 167.815 460.621 167.26Q459.694 166.704 458.742 166.195Q457.789 165.686 456.813 165.224Q455.836 164.763 454.839 164.349Q453.841 163.936 452.824 163.572Q451.807 163.208 450.773 162.895Q449.739 162.581 448.692 162.319Q447.644 162.056 446.585 161.845Q445.525 161.635 444.457 161.476Q443.388 161.318 442.314 161.212Q441.239 161.106 440.16 161.053Q439.081 161 438.001 161L73.9989 161Q72.9188 161 71.84 161.053Q70.7611 161.106 69.6862 161.212Q68.6113 161.318 67.5429 161.476Q66.4744 161.635 65.4151 161.845Q64.3557 162.056 63.308 162.319Q62.2602 162.581 61.2266 162.895Q60.193 163.208 59.1761 163.572Q58.1591 163.936 57.1612 164.349Q56.1633 164.763 55.1869 165.224Q54.2105 165.686 53.2579 166.195Q52.3053 166.704 51.3789 167.26Q50.4524 167.815 49.5543 168.415Q48.6563 169.015 47.7887 169.659Q46.9211 170.302 46.0862 170.987Q45.2513 171.673 44.451 172.398Q43.6506 173.123 42.8869 173.887Q42.1231 174.651 41.3978 175.451Q40.6724 176.251 39.9872 177.086Q39.302 177.921 38.6585 178.789Q38.0151 179.656 37.415 180.554Q36.815 181.453 36.2597 182.379Q35.7044 183.305 35.1952 184.258Q34.6861 185.211 34.2242 186.187Q33.7624 187.163 33.3491 188.161Q32.9358 189.159 32.5719 190.176Q32.208 191.193 31.8945 192.227Q31.5809 193.26 31.3185 194.308Q31.056 195.356 30.8453 196.415Q30.6346 197.475 30.4761 198.543Q30.3176 199.611 30.2117 200.686Q30.1059 201.761 30.0529 202.84Q29.9999 203.919 29.9999 204.999L29.9999 327.001Q29.9999 328.081 30.0529 329.16Q30.1059 330.239 30.2117 331.314Q30.3176 332.389 30.4761 333.457Q30.6346 334.525 30.8453 335.585Q31.056 336.644 31.3185 337.692Q31.5809 338.74 31.8945 339.773Q32.208 340.807 32.5719 341.824Q32.9358 342.841 33.3491 343.839Q33.7624 344.837 34.2242 345.813Q34.6861 346.789 35.1952 347.742Q35.7044 348.695 36.2597 349.621Q36.815 350.547 37.415 351.445Q38.0151 352.344 38.6585 353.211Q39.302 354.079 39.9872 354.914Q40.6724 355.749 41.3978 356.549Q42.1231 357.349 42.8869 358.113Q43.6506 358.877 44.451 359.602Q45.2513 360.327 46.0862 361.013Q46.9211 361.698 47.7887 362.341Q48.6563 362.985 49.5543 363.585Q50.4524 364.185 51.3789 364.74Q52.3053 365.295 53.2579 365.805Q54.2105 366.314 55.1869 366.776Q56.1633 367.237 57.1612 367.651Q58.1591 368.064 59.1761 368.428Q60.193 368.792 61.2266 369.105Q62.2602 369.419 63.308 369.681Q64.3557 369.944 65.4151 370.155Q66.4744 370.365 67.5429 370.524Q68.6113 370.682 69.6862 370.788Q70.7611 370.894 71.84 370.947Q72.9188 371 73.9989 371ZM80 193L128 193C132.142 193 135.678 194.464 138.607 197.393C141.536 200.322 143 203.858 143 208C143 212.142 141.536 215.678 138.607 218.607C135.678 221.536 132.142 223 128 223L80 223C75.8579 223 72.3223 221.536 69.3934 218.607C66.4645 215.678 65 212.142 65 208C65 203.858 66.4645 200.322 69.3934 197.393Q73.7868 193 80 193ZM119 319L393 319L393 468.001Q393 468.345 392.983 468.688Q392.966 469.031 392.932 469.373Q392.899 469.715 392.848 470.055Q392.798 470.395 392.731 470.732Q392.664 471.069 392.58 471.402Q392.497 471.736 392.397 472.065Q392.297 472.394 392.182 472.717Q392.066 473.041 391.934 473.358Q391.803 473.676 391.656 473.986Q391.509 474.297 391.347 474.6Q391.185 474.903 391.008 475.198Q390.832 475.493 390.641 475.778Q390.45 476.064 390.245 476.34Q390.04 476.616 389.822 476.882Q389.604 477.148 389.373 477.402Q389.143 477.657 388.9 477.9Q388.657 478.143 388.402 478.374Q388.147 478.604 387.882 478.822Q387.616 479.04 387.34 479.245Q387.064 479.45 386.778 479.641Q386.493 479.832 386.198 480.008Q385.903 480.185 385.6 480.347Q385.297 480.509 384.986 480.656Q384.676 480.803 384.358 480.934Q384.041 481.066 383.717 481.182Q383.393 481.297 383.065 481.397Q382.736 481.497 382.402 481.58Q382.069 481.664 381.732 481.731Q381.395 481.798 381.055 481.848Q380.715 481.899 380.373 481.933Q380.031 481.966 379.688 481.983Q379.345 482 379.001 482L132.999 482Q132.655 482 132.312 481.983Q131.969 481.966 131.627 481.933Q131.285 481.899 130.945 481.848Q130.605 481.798 130.268 481.731Q129.931 481.664 129.597 481.58Q129.264 481.497 128.935 481.397Q128.606 481.297 128.283 481.182Q127.959 481.066 127.642 480.934Q127.324 480.803 127.014 480.656Q126.703 480.509 126.4 480.347Q126.097 480.185 125.802 480.008Q125.507 479.832 125.221 479.641Q124.936 479.45 124.66 479.245Q124.384 479.04 124.118 478.822Q123.852 478.604 123.598 478.374Q123.343 478.143 123.1 477.9Q122.857 477.657 122.626 477.402Q122.396 477.147 122.177 476.882Q121.959 476.616 121.755 476.34Q121.55 476.064 121.359 475.778Q121.168 475.493 120.992 475.198Q120.815 474.903 120.653 474.6Q120.491 474.297 120.344 473.986Q120.197 473.676 120.065 473.358Q119.934 473.041 119.818 472.717Q119.702 472.393 119.603 472.065Q119.503 471.736 119.419 471.402Q119.336 471.069 119.269 470.732Q119.202 470.395 119.151 470.055Q119.101 469.715 119.067 469.373Q119.034 469.031 119.017 468.688Q119 468.345 119 468.001L119 319Z" id="Outer-printer" fill-rule="nonzero" stroke="none" />
    <path d="M97 0L15 0C10.8578 0 7.32231 1.46445 4.39339 4.39337C1.46445 7.3223 -1.52588e-05 10.8578 0 15C-1.52588e-05 19.1421 1.46445 22.6776 4.39339 25.6066C7.32231 28.5355 10.8578 30 15 30L97 30C101.142 30 104.678 28.5355 107.607 25.6066C110.535 22.6776 112 19.1421 112 15C112 10.8578 110.535 7.3223 107.607 4.39337C104.678 1.46445 101.142 0 97 0L97 0Z" transform="translate(199.99988 420)" id="Vector" fill-rule="nonzero" stroke="none" />
    <path d="M97 0L15 0C10.8578 0 7.32231 1.46445 4.39339 4.39337C1.46445 7.3223 -1.52588e-05 10.8578 0 15C-1.52588e-05 19.1421 1.46445 22.6777 4.39339 25.6066C7.32231 28.5355 10.8578 30 15 30L97 30C101.142 30 104.678 28.5355 107.607 25.6066C110.535 22.6777 112 19.1421 112 15C112 10.8578 110.535 7.3223 107.607 4.39337C104.678 1.46445 101.142 0 97 0L97 0Z" transform="translate(199.99988 356)" id="Vector" fill-rule="nonzero" stroke="none" />
  </g>
</svg>