<svg width="24" height="24" xmlns:xlink="http://www.w3.org/1999/xlink"
  xmlns="http://www.w3.org/2000/svg">
  <g>
    <path
      d="M7 21c0-1.333.667-2 2-2s2 .667 2 2-.667 2-2 2-2-.667-2-2Zm11 0c0-1.333.667-2 2-2s2 .667 2 2-.667 2-2 2-2-.667-2-2ZM1 0h4c.238 0 .45.076.634.227.184.15.3.343.347.577L6.82 5H23a1 1 0 0 1 .187.018.963.963 0 0 1 .64.42c.155.228.207.478.155.75l-1.601 8.397c-.326 1.642-1.32 2.447-2.981 2.415H9.7c-1.675.032-2.675-.773-3-2.414L5.027 6.234a.996.996 0 0 1-.015-.075l-.287-1.433L4.18 2H1a.964.964 0 0 1-.707-.293A.964.964 0 0 1 0 1C0 .724.098.488.293.293A.964.964 0 0 1 1 0Zm7.66 14.194L7.22 7h14.571l-1.372 7.195c-.109.547-.448.816-1.019.805H9.66c-.557.01-.89-.258-1-.806Z"
      fill-rule="evenodd" />
  </g>
</svg>