<?xml version="1.0" encoding="utf-8"?>
<svg width="52px" height="52px" viewBox="0 0 52 52" version="1.1" xmlns:xlink="http://www.w3.org/1999/xlink" xmlns="http://www.w3.org/2000/svg">
  <desc>Created with Lunacy</desc>
  <g id="zoom-to">
    <g id="zoom-to-instance">
      <path d="M20.2347 40.4693C25.17 40.4693 29.6565 38.7195 33.1561 35.7583L48.8593 51.4615C49.2182 51.8204 49.6669 51.9999 50.1604 51.9999C50.6539 51.9999 51.1026 51.8204 51.4615 51.4615C52.1794 50.7436 52.1794 49.5771 51.4615 48.8593L35.7583 33.1561C38.6746 29.6566 40.4693 25.1251 40.4693 20.2347C40.4693 9.06296 31.4063 0 20.2347 0C9.10783 0 0 9.10783 0 20.2347C0 31.4063 9.10783 40.4693 20.2347 40.4693ZM20.2347 3.67902C29.3873 3.67902 36.7902 11.1268 36.7902 20.2347C36.7902 29.3873 29.3873 36.7902 20.2347 36.7902C11.082 36.7902 3.67902 29.3424 3.67902 20.2347C3.67902 11.1268 11.1268 3.67902 20.2347 3.67902Z" id="Shape" fill-rule="nonzero" stroke="none" />
    </g>
    <path d="M3 0L3 4.5L7.5 4.5L7.5 7.5L0 7.5L0 0L3 0L3 0Z" transform="matrix(-4.013393E-07 -1 1 -4.013393E-07 21.83945 29.49551)" id="Vector-4" fill-rule="nonzero" />
    <path d="M3 0L3 4.5L7.5 4.5L7.5 7.5L0 7.5L0 0L3 0L3 0Z" transform="matrix(-1 -8.742278E-08 8.742278E-08 -1 29.33951 18.49561)" id="Vector-3" fill-rule="nonzero" />
    <path d="M3 0L3 4.5L7.5 4.5L7.5 7.5L0 7.5L0 0L3 0L3 0Z" transform="matrix(-4.371139E-08 1 -1 -4.371139E-08 18.33948 10.99554)" id="Vector-2" fill-rule="nonzero" />
    <path d="M3 0L3 4.5L7.5 4.5L7.5 7.5L0 7.5L0 0L3 0L3 0Z" transform="translate(10.83948 21.99557)" id="Vector" fill-rule="nonzero" />
  </g>
</svg>